<?xml version="1.0" encoding="UTF-8"?>
<svg width="64" height="64" role="img" version="1.1" viewBox="0 0 64 64" xmlns="http://www.w3.org/2000/svg" xmlns:cc="http://creativecommons.org/ns#" xmlns:dc="http://purl.org/dc/elements/1.1/" xmlns:rdf="http://www.w3.org/1999/02/22-rdf-syntax-ns#">
 <metadata>
  <rdf:RDF>
   <cc:Work rdf:about="">
    <dc:format>image/svg+xml</dc:format>
    <dc:type rdf:resource="http://purl.org/dc/dcmitype/StillImage"/>
    <dc:title>Facebook icon</dc:title>
   </cc:Work>
  </rdf:RDF>
 </metadata>
 <title>Facebook icon</title>
 <path d="m60.469 0h-56.939c-1.9493 0-3.5307 1.5813-3.5307 3.5307v56.939c0 1.952 1.5813 3.5307 3.5307 3.5307h30.651v-24.784h-8.344v-9.656h8.344v-7.1333c0-8.264 5.0507-12.76 12.424-12.76 3.5333 0 6.5707 0.25867 7.456 0.376v8.64h-5.1227c-4 0-4.7787 1.9227-4.7787 4.7227v6.1627h9.5573l-1.24 9.68h-8.3173v24.752h16.307c1.9547 0 3.5333-1.5787 3.5333-3.5307v-56.939c0-1.9493-1.5787-3.5307-3.5307-3.5307" fill="#3b5998" stroke-width="2.6667"/>
</svg>
