<?xml version="1.0" encoding="UTF-8" standalone="no"?>
<svg
   xmlns:dc="http://purl.org/dc/elements/1.1/"
   xmlns:cc="http://creativecommons.org/ns#"
   xmlns:rdf="http://www.w3.org/1999/02/22-rdf-syntax-ns#"
   xmlns:svg="http://www.w3.org/2000/svg"
   xmlns="http://www.w3.org/2000/svg"
   xmlns:sodipodi="http://sodipodi.sourceforge.net/DTD/sodipodi-0.dtd"
   xmlns:inkscape="http://www.inkscape.org/namespaces/inkscape"
   width="1920"
   height="1450"
   viewBox="0 0 507.99999 383.64584"
   version="1.1"
   id="svg8"
   sodipodi:docname="hero-desktop.svg"
   inkscape:version="1.0 (4035a4fb49, 2020-05-01)">
  <defs
     id="defs2">
    <filter
       inkscape:collect="always"
       style="color-interpolation-filters:sRGB"
       id="filter3373"
       x="-0.005024089"
       width="1.0100482"
       y="-0.012654052"
       height="1.0253081">
      <feGaussianBlur
         inkscape:collect="always"
         stdDeviation="0.80393326"
         id="feGaussianBlur3375" />
    </filter>
  </defs>
  <sodipodi:namedview
     id="base"
     pagecolor="#ffffff"
     bordercolor="#666666"
     borderopacity="1.0"
     inkscape:pageopacity="0.0"
     inkscape:pageshadow="2"
     inkscape:zoom="0.57724138"
     inkscape:cx="960"
     inkscape:cy="655.7049"
     inkscape:document-units="px"
     inkscape:current-layer="layer1"
     inkscape:document-rotation="0"
     showgrid="false"
     showguides="true"
     units="px"
     inkscape:window-width="1920"
     inkscape:window-height="1027"
     inkscape:window-x="1912"
     inkscape:window-y="-8"
     inkscape:window-maximized="1"
     inkscape:guide-bbox="true" />
  <metadata
     id="metadata5">
    <rdf:RDF>
      <cc:Work
         rdf:about="">
        <dc:format>image/svg+xml</dc:format>
        <dc:type
           rdf:resource="http://purl.org/dc/dcmitype/StillImage" />
        <dc:title />
      </cc:Work>
    </rdf:RDF>
  </metadata>
  <g
     inkscape:label="Layer 1"
     inkscape:groupmode="layer"
     id="layer1">
    <g
       id="g4669"
       style="opacity:0.284">
      <path
         transform="scale(0.26458333)"
         d="M 961.17773 0 C 802.163 98.359906 593.28616 132.7302 466.9082 343.28125 C 469.9912 259.81068 456.88537 155.79477 434.5332 49.746094 C 393.16963 350.45107 119.19716 428.96018 0 550.34766 L 0 1268.3125 C 104.33028 1367.3326 252.13397 1429.127 416.03516 1429.125 C 517.36807 1429.1199 616.88042 1404.9862 704.4043 1359.1895 C 1201.9649 1177.511 942.52132 326.99489 1740.9648 230.38281 C 1119.7804 246.38802 924.45257 691.85991 931.67578 618.3125 C 925.31348 212.29029 1619.6337 303.92082 1843.9551 0 L 1716.5332 0 C 1687.8436 25.861562 1648.2654 47.772328 1592.9688 74.378906 C 1471.9197 132.6229 1350.9571 181.11967 1209.1367 209.85547 C 1364.635 144.6317 1503.7093 77.160027 1634.7754 0 L 1266.9766 0 C 1195.928 34.702098 1136.7073 73.649861 1100.4512 125.69531 C 1116.7204 86.95465 1131.9376 45.428674 1144.3047 0 L 961.17773 0 z M 1051.8906 14.878906 C 1046.4952 35.4045 1053.8504 62.839688 1035.7031 76.431641 C 999.27003 103.71902 947.85924 109.2749 903.92578 125.69531 C 971.75307 94.90685 1000.2494 49.772251 1051.8906 14.878906 z "
         style="opacity:1;fill:#045f00;fill-opacity:1;fill-rule:evenodd;stroke:none;stroke-width:19.9403;stroke-opacity:1"
         id="path858" />
      <path
         sodipodi:nodetypes="cccc"
         id="path860"
         d="m 379.87337,138.07202 c -85.17007,13.05701 -52.42351,110.69743 -116.24067,177.58463 60.32862,-37.58847 86.74961,-54.23692 108.28738,-95.03763 -70.6151,66.77232 -55.37228,-40.01839 7.95329,-82.547 z"
         style="opacity:1;fill:#045f00;fill-opacity:1;stroke:none;stroke-width:4.15691px;stroke-linecap:butt;stroke-linejoin:miter;stroke-opacity:1" />
      <path
         transform="scale(0.26458333)"
         d="M 1920 265.52539 C 1745.073 323.15978 1583.9718 344.76194 1463.4902 413.06055 C 1712.4467 357.64155 1716.3 347.37992 1842.7051 314.53906 C 1868.47 302.31108 1894.235 290.08345 1920 277.85547 L 1920 265.52539 z "
         style="opacity:1;fill:#045f00;fill-opacity:1;stroke:none;stroke-width:15.7112px;stroke-linecap:butt;stroke-linejoin:miter;stroke-opacity:1"
         id="path862" />
      <path
         transform="scale(0.26458333)"
         d="M 902.75391 178.76758 C 734.95192 210.98099 678.28027 312.14776 657.17773 303.3457 C 634.95778 288.64689 647.5697 267.96933 676.06836 231.47266 C 570.82095 286.56985 506.06511 403.94891 417.00977 432.69531 C 417.00977 432.69531 367.5308 460.63454 395.41602 377.58984 C 348.54296 448.05608 240.84246 488.10436 172.90234 536.05273 C 98.971081 576.76827 39.909231 633.70457 0 699.99023 L 0 1113.0332 C 9.9961337 1129.6393 21.20968 1145.719 33.634766 1161.1406 C 20.094264 1005.8064 91.149061 700.73217 562.69531 465.85547 C 737.73026 363.03874 777.71674 239.97804 902.75391 178.76758 z M 956.7207 195.53516 C 946.99964 203.69439 937.77285 213.08545 928.93945 223.43555 C 938.26729 214.03822 946.97145 205.46398 956.7207 195.53516 z M 928.93945 223.43555 C 808.32331 344.95239 719.38972 446.33128 598.94336 500.14453 C 361.18927 580.82323 5.7630088 936.96424 82.390625 1203.0898 C 86.828917 1211.136 122.82727 1253.2501 156.58398 1267.6211 C 179.63637 1276.3583 440.23672 1222.6852 538.59375 1123.6426 C 688.58835 990.50396 739.71085 817.5437 790.29102 578.34961 C 815.0775 455.2081 857.70949 306.89425 928.93945 223.43555 z M 1007.9863 286.57617 C 904.89915 324.04072 842.97581 509.66659 823.80469 581.32617 C 792.83645 863.08598 693.93198 1042.1481 567.77539 1150.4141 C 456.60335 1245.8207 325.16554 1285.2089 204.5918 1293.0039 C 273.25293 1324.7384 349.37555 1341.3031 426.61914 1341.3145 C 533.25107 1341.3083 636.90695 1309.7778 721.53711 1251.6035 C 1004.8886 1098.0053 941.83485 752.22658 1026.9082 574.04102 C 834.16851 902.24926 826.57721 505.12514 1007.9863 286.57812 L 1007.9863 286.57617 z "
         style="opacity:1;fill:#f7db12;fill-opacity:1;fill-rule:evenodd;stroke:none;stroke-width:16.8936;stroke-opacity:1"
         id="path866" />
    </g>
    <g
       id="g6537"
       transform="translate(0,-5.291667)">
      <g
         id="g2875"
         transform="matrix(4.7172485,0,0,4.7172485,-285.46182,-508.53492)"
         style="fill:#ffffff;filter:url(#filter3373)">
        <g
           transform="translate(0.16793824,53.084784)"
           id="g2871"
           style="fill:#ffffff">
          <path
             sodipodi:nodetypes="cccccsccccccccscccsc"
             transform="scale(0.26458333)"
             d="m 288.69531,255.55469 c -10.85565,52.45138 58.17436,32.10874 57.6836,67.39062 0.43316,4.96858 -11.2802,-25.12578 -48.53125,-26.20703 47.88088,6.52674 32.32255,63.98431 62.16015,76.25781 5.24861,3.09385 11.21626,4.72427 17.29297,4.72461 18.95347,3.2e-4 34.31844,-15.52205 34.31836,-34.66992 6e-5,-6.64485 -1.89006,-13.14974 -7.83135,-22.64428 -5.9413,-9.49454 -24.91559,-13.9164 -27.59638,-35.87134 -1.34041,7.16424 -2.12629,14.19112 -1.94141,19.83007 -12.38721,-23.24912 -37.99246,-14.69927 -42.15234,-45.20507 -1.10931,13.21918 1.24823,22.69452 4.16015,30.50586 -8.20157,-13.2631 -35.99544,-13.93649 -47.5625,-34.11133 z m 7.34961,19.83008 c 10.26105,7.76511 21.077,14.00429 33.69531,19.96679 -8.50465,-1.94128 -15.75853,-5.2176 -23.01757,-9.15234 -6.29951,-3.41463 -9.19867,-5.68393 -10.67774,-10.81445 z m 43.125,6.79492 c 3.09681,2.35726 4.8056,5.40638 8.87305,7.48633 -2.63459,-1.1093 -5.71754,-1.4847 -7.90235,-3.32813 -1.08825,-0.91822 -0.64715,-2.77157 -0.9707,-4.1582 z"
             style="fill:#ffffff;fill-opacity:1;fill-rule:evenodd;stroke:none;stroke-width:1.26918;stroke-opacity:1"
             id="path2865" />
          <path
             sodipodi:nodetypes="cccc"
             id="path2867"
             d="m 83.648332,83.721706 c 5.107459,0.882081 3.143721,7.478292 6.970694,11.996933 -3.617773,-2.539332 -5.202181,-3.664037 -6.493753,-6.420376 4.23463,4.510881 3.320552,-2.703488 -0.476941,-5.576557 z"
             style="fill:#ffffff;fill-opacity:1;stroke:none;stroke-width:0.264583px;stroke-linecap:butt;stroke-linejoin:miter;stroke-opacity:1" />
          <path
             sodipodi:nodetypes="cccc"
             id="path2869"
             d="m 73.485792,78.035088 c 3.705476,1.981145 7.251968,2.164583 9.722284,3.742161 -3.95006,-0.990572 -4.011205,-1.174011 -6.016808,-1.761016 -1.235159,-0.660382 -2.470317,-1.320763 -3.705476,-1.981145 z"
             style="fill:#ffffff;fill-opacity:1;stroke:none;stroke-width:0.264583px;stroke-linecap:butt;stroke-linejoin:miter;stroke-opacity:1" />
        </g>
        <path
           sodipodi:nodetypes="cccccccccccccccccccccccccscccc"
           d="m 92.27292,130.67421 c 1.983899,1.09409 2.618347,3.2937 5.395534,5.13147 7.481776,4.19824 8.609166,9.6512 8.394326,12.42768 0.9473,-1.32454 1.45722,-2.91705 1.45727,-4.55115 -2e-4,-2.70108 -1.38863,-5.20832 -3.66696,-6.62182 -1.07797,-0.85704 -2.78682,-1.57286 -3.53053,-2.83239 0.44244,1.48436 -0.342618,0.98496 -0.342618,0.98496 -1.412994,-0.51382 -2.440437,-2.61187 -4.110342,-3.59669 0.452173,0.65235 0.652275,1.02195 0.299723,1.28468 -0.334823,0.15733 -1.233977,-1.65095 -3.896403,-2.22674 z m -0.856279,0.29972 c 0.154686,0.17747 0.292799,0.33071 0.440799,0.49868 -0.140155,-0.185 -0.28656,-0.35284 -0.440799,-0.49868 z m 0.440799,0.49868 c 1.130168,1.49176 1.806593,4.14275 2.199867,6.34381 0.802529,4.27541 1.61367,7.36695 3.993555,9.7467 1.560579,1.77031 5.695378,2.72966 6.061138,2.57349 0.5356,-0.25687 1.10677,-1.0096 1.17719,-1.15342 1.21581,-4.75679 -4.42356,-11.12255 -8.195879,-12.56462 -1.911059,-0.96187 -3.322105,-2.77393 -5.235858,-4.94595 z m -1.254186,1.12862 c 2.878323,3.90636 2.757858,11.00466 -0.300241,5.13819 1.349814,3.18493 0.349393,9.36544 4.845182,12.11089 1.342782,1.03982 2.987429,1.60341 4.679302,1.60352 1.225583,-2.2e-4 2.433373,-0.29628 3.522783,-0.86351 -1.91308,-0.13933 -3.998531,-0.84336 -5.762439,-2.54868 -2.00166,-1.93517 -3.570928,-5.13576 -4.062285,-10.172 -0.304178,-1.28086 -1.286672,-4.59877 -2.922302,-5.26842 z"
           style="fill:#ffffff;fill-opacity:1;fill-rule:evenodd;stroke:none;stroke-width:0.284496;stroke-opacity:1"
           id="path2873" />
      </g>
      <g
         transform="matrix(4.7172485,0,0,4.7172485,-285.46182,-508.53492)"
         id="g931">
        <g
           id="g874"
           transform="translate(0.16793824,53.084784)">
          <path
             id="path24-0"
             style="fill:#045f00;fill-opacity:1;fill-rule:evenodd;stroke:none;stroke-width:1.26918;stroke-opacity:1"
             d="m 288.69531,255.55469 c -10.85565,52.45138 58.17436,32.10874 57.6836,67.39062 0.43316,4.96858 -11.2802,-25.12578 -48.53125,-26.20703 47.88088,6.52674 32.32255,63.98431 62.16015,76.25781 5.24861,3.09385 11.21626,4.72427 17.29297,4.72461 18.95347,3.2e-4 34.31844,-15.52205 34.31836,-34.66992 6e-5,-6.64485 -1.89006,-13.14974 -7.83135,-22.64428 -5.9413,-9.49454 -24.91559,-13.9164 -27.59638,-35.87134 -1.34041,7.16424 -2.12629,14.19112 -1.94141,19.83007 -12.38721,-23.24912 -37.99246,-14.69927 -42.15234,-45.20507 -1.10931,13.21918 1.24823,22.69452 4.16015,30.50586 -8.20157,-13.2631 -35.99544,-13.93649 -47.5625,-34.11133 z m 7.34961,19.83008 c 10.26105,7.76511 21.077,14.00429 33.69531,19.96679 -8.50465,-1.94128 -15.75853,-5.2176 -23.01757,-9.15234 -6.29951,-3.41463 -9.19867,-5.68393 -10.67774,-10.81445 z m 43.125,6.79492 c 3.09681,2.35726 4.8056,5.40638 8.87305,7.48633 -2.63459,-1.1093 -5.71754,-1.4847 -7.90235,-3.32813 -1.08825,-0.91822 -0.64715,-2.77157 -0.9707,-4.1582 z"
             transform="scale(0.26458333)"
             sodipodi:nodetypes="cccccsccccccccscccsc" />
          <path
             style="fill:#045f00;fill-opacity:1;stroke:none;stroke-width:0.264583px;stroke-linecap:butt;stroke-linejoin:miter;stroke-opacity:1"
             d="m 83.648332,83.721706 c 5.107459,0.882081 3.143721,7.478292 6.970694,11.996933 -3.617773,-2.539332 -5.202181,-3.664037 -6.493753,-6.420376 4.23463,4.510881 3.320552,-2.703488 -0.476941,-5.576557 z"
             id="path867"
             sodipodi:nodetypes="cccc" />
          <path
             style="fill:#045f00;fill-opacity:1;stroke:none;stroke-width:0.264583px;stroke-linecap:butt;stroke-linejoin:miter;stroke-opacity:1"
             d="m 73.485792,78.035088 c 3.705476,1.981145 7.251968,2.164583 9.722284,3.742161 -3.95006,-0.990572 -4.011205,-1.174011 -6.016808,-1.761016 -1.235159,-0.660382 -2.470317,-1.320763 -3.705476,-1.981145 z"
             id="path869"
             sodipodi:nodetypes="cccc" />
        </g>
        <path
           id="path24"
           style="fill:#f7db12;fill-opacity:1;fill-rule:evenodd;stroke:none;stroke-width:0.284496;stroke-opacity:1"
           d="m 92.27292,130.67421 c 1.983899,1.09409 2.618347,3.2937 5.395534,5.13147 7.481776,4.19824 8.609166,9.6512 8.394326,12.42768 0.9473,-1.32454 1.45722,-2.91705 1.45727,-4.55115 -2e-4,-2.70108 -1.38863,-5.20832 -3.66696,-6.62182 -1.07797,-0.85704 -2.78682,-1.57286 -3.53053,-2.83239 0.44244,1.48436 -0.342618,0.98496 -0.342618,0.98496 -1.412994,-0.51382 -2.440437,-2.61187 -4.110342,-3.59669 0.452173,0.65235 0.652275,1.02195 0.299723,1.28468 -0.334823,0.15733 -1.233977,-1.65095 -3.896403,-2.22674 z m -0.856279,0.29972 c 0.154686,0.17747 0.292799,0.33071 0.440799,0.49868 -0.140155,-0.185 -0.28656,-0.35284 -0.440799,-0.49868 z m 0.440799,0.49868 c 1.130168,1.49176 1.806593,4.14275 2.199867,6.34381 0.802529,4.27541 1.61367,7.36695 3.993555,9.7467 1.560579,1.77031 5.695378,2.72966 6.061138,2.57349 0.5356,-0.25687 1.10677,-1.0096 1.17719,-1.15342 1.21581,-4.75679 -4.42356,-11.12255 -8.195879,-12.56462 -1.911059,-0.96187 -3.322105,-2.77393 -5.235858,-4.94595 z m -1.254186,1.12862 c 2.878323,3.90636 2.757858,11.00466 -0.300241,5.13819 1.349814,3.18493 0.349393,9.36544 4.845182,12.11089 1.342782,1.03982 2.987429,1.60341 4.679302,1.60352 1.225583,-2.2e-4 2.433373,-0.29628 3.522783,-0.86351 -1.91308,-0.13933 -3.998531,-0.84336 -5.762439,-2.54868 -2.00166,-1.93517 -3.570928,-5.13576 -4.062285,-10.172 -0.304178,-1.28086 -1.286672,-4.59877 -2.922302,-5.26842 z"
           sodipodi:nodetypes="cccccccccccccccccccccccccscccc" />
      </g>
    </g>
    <g
       style="font-style:normal;font-variant:normal;font-weight:normal;font-stretch:normal;font-size:39.8916px;line-height:1.25;font-family:Communist;-inkscape-font-specification:Communist;text-align:center;text-anchor:middle;fill:#ffffff;fill-opacity:1;stroke:none;stroke-width:3.0861;stroke-miterlimit:4;stroke-dasharray:none;stroke-opacity:1;filter:url(#filter3373)"
       id="text2881"
       aria-label="ST. JUDE'S
">
      <path
         id="path879"
         style="font-style:normal;font-variant:normal;font-weight:bold;font-stretch:normal;font-size:39.8916px;font-family:Oswald;-inkscape-font-specification:'Oswald Bold';fill:#ffffff;fill-opacity:1;stroke:none;stroke-width:3.0861;stroke-miterlimit:4;stroke-dasharray:none;stroke-opacity:1"
         d="m 297.35688,113.16661 q -3.03176,0 -5.06623,-1.07707 -2.03447,-1.07708 -3.07165,-3.311 -1.03718,-2.27383 -1.15686,-5.86407 l 6.10342,-0.91751 q 0.0399,2.07437 0.35902,3.3509 0.35903,1.27653 0.9574,1.83501 0.63826,0.55848 1.51588,0.55848 1.11696,0 1.4361,-0.75794 0.35902,-0.75794 0.35902,-1.59566 0,-1.99458 -0.9574,-3.3509 -0.95739,-1.3962 -2.59295,-2.792408 l -2.79241,-2.433387 q -1.83502,-1.555773 -3.11155,-3.510461 -1.23664,-1.99458 -1.23664,-4.906667 0,-4.108835 2.43339,-6.262982 2.43339,-2.194038 6.62201,-2.194038 2.59295,0 4.14872,0.877615 1.59567,0.877616 2.3935,2.313713 0.83772,1.396206 1.11696,2.99187 0.31914,1.555773 0.35903,2.99187 l -6.14331,0.757941 q -0.0399,-1.436098 -0.19946,-2.473279 -0.11967,-1.077074 -0.55848,-1.635556 -0.43881,-0.598374 -1.35631,-0.598374 -0.99729,0 -1.47599,0.837724 -0.43881,0.837723 -0.43881,1.675447 0,1.795122 0.83772,2.951978 0.87762,1.116965 2.27382,2.353605 l 2.67274,2.353604 q 2.11426,1.795122 3.55035,4.068944 1.47599,2.273821 1.47599,5.624711 0,2.27383 -1.03718,4.14873 -1.03718,1.83501 -2.95198,2.91209 -1.8749,1.07707 -4.46786,1.07707 z" />
      <path
         id="path881"
         style="font-style:normal;font-variant:normal;font-weight:bold;font-stretch:normal;font-size:39.8916px;font-family:Oswald;-inkscape-font-specification:'Oswald Bold';fill:#ffffff;fill-opacity:1;stroke:none;stroke-width:3.0861;stroke-miterlimit:4;stroke-dasharray:none;stroke-opacity:1"
         d="M 312.18347,112.68791 V 85.681298 h -4.86677 v -5.305583 h 16.87414 v 5.305583 h -4.82688 v 27.006612 z" />
      <path
         id="path883"
         style="font-style:normal;font-variant:normal;font-weight:bold;font-stretch:normal;font-size:39.8916px;font-family:Oswald;-inkscape-font-specification:'Oswald Bold';fill:#ffffff;fill-opacity:1;stroke:none;stroke-width:3.0861;stroke-miterlimit:4;stroke-dasharray:none;stroke-opacity:1"
         d="m 326.47713,112.68791 v -6.1433 h 6.14331 v 6.1433 z" />
      <path
         id="path885"
         style="font-style:normal;font-variant:normal;font-weight:bold;font-stretch:normal;font-size:39.8916px;font-family:Oswald;-inkscape-font-specification:'Oswald Bold';fill:#ffffff;fill-opacity:1;stroke:none;stroke-width:3.0861;stroke-miterlimit:4;stroke-dasharray:none;stroke-opacity:1"
         d="m 345.10651,113.52564 v -4.98645 q 1.07707,0 1.83501,-0.11968 0.75794,-0.11967 1.19675,-0.43881 0.43881,-0.35902 0.63827,-0.99729 0.19946,-0.67815 0.19946,-1.71534 V 80.375715 h 7.14059 v 25.211495 q 0,2.63284 -0.67816,4.42796 -0.63826,1.75524 -2.27382,2.63285 -1.63555,0.87762 -4.58753,0.87762 z" />
      <path
         id="path887"
         style="font-style:normal;font-variant:normal;font-weight:bold;font-stretch:normal;font-size:39.8916px;font-family:Oswald;-inkscape-font-specification:'Oswald Bold';fill:#ffffff;fill-opacity:1;stroke:none;stroke-width:3.0861;stroke-miterlimit:4;stroke-dasharray:none;stroke-opacity:1"
         d="m 370.26253,113.16661 q -3.70992,0 -5.82417,-1.19675 -2.07437,-1.23664 -2.91209,-3.55035 -0.83772,-2.3536 -0.83772,-5.74439 V 80.375715 h 7.06081 v 23.376475 q 0,0.99729 0.15957,1.99458 0.15956,0.99729 0.67815,1.63556 0.55849,0.63826 1.67545,0.63826 1.15686,0 1.67545,-0.63826 0.51859,-0.63827 0.63826,-1.63556 0.15957,-0.99729 0.15957,-1.99458 V 80.375715 h 7.1007 v 22.299405 q 0,3.39079 -0.87761,5.74439 -0.83772,2.31371 -2.91209,3.55035 -2.07436,1.19675 -5.78428,1.19675 z" />
      <path
         id="path889"
         style="font-style:normal;font-variant:normal;font-weight:bold;font-stretch:normal;font-size:39.8916px;font-family:Oswald;-inkscape-font-specification:'Oswald Bold';fill:#ffffff;fill-opacity:1;stroke:none;stroke-width:3.0861;stroke-miterlimit:4;stroke-dasharray:none;stroke-opacity:1"
         d="M 384.37979,112.68791 V 80.375715 h 8.17778 q 4.22851,0 6.58211,1.077073 2.35361,1.037182 3.31101,3.311003 0.9574,2.23393 0.9574,5.824174 V 102.3161 q 0,3.63013 -0.9574,5.94384 -0.9574,2.27383 -3.31101,3.3509 -2.31371,1.07707 -6.50233,1.07707 z m 7.1406,-4.94656 h 1.11696 q 1.63556,0 2.35361,-0.4787 0.71805,-0.4787 0.87761,-1.43609 0.19946,-0.9574 0.19946,-2.3935 V 89.351325 q 0,-1.436098 -0.23935,-2.313713 -0.19946,-0.877615 -0.91751,-1.276531 -0.71804,-0.398916 -2.31371,-0.398916 h -1.07707 z" />
      <path
         id="path891"
         style="font-style:normal;font-variant:normal;font-weight:bold;font-stretch:normal;font-size:39.8916px;font-family:Oswald;-inkscape-font-specification:'Oswald Bold';fill:#ffffff;fill-opacity:1;stroke:none;stroke-width:3.0861;stroke-miterlimit:4;stroke-dasharray:none;stroke-opacity:1"
         d="M 407.75378,112.68791 V 80.375715 h 14.52054 v 4.866775 h -7.37995 v 8.018212 h 5.62472 v 4.946559 h -5.62472 v 9.653769 h 7.45973 v 4.82688 z" />
      <path
         id="path893"
         style="font-style:normal;font-variant:normal;font-weight:bold;font-stretch:normal;font-size:39.8916px;font-family:Oswald;-inkscape-font-specification:'Oswald Bold';fill:#ffffff;fill-opacity:1;stroke:none;stroke-width:3.0861;stroke-miterlimit:4;stroke-dasharray:none;stroke-opacity:1"
         d="M 424.19972,92.383087 V 80.375715 h 5.30558 l -2.15414,12.007372 z" />
      <path
         id="path895"
         style="font-style:normal;font-variant:normal;font-weight:bold;font-stretch:normal;font-size:39.8916px;font-family:Oswald;-inkscape-font-specification:'Oswald Bold';fill:#ffffff;fill-opacity:1;stroke:none;stroke-width:3.0861;stroke-miterlimit:4;stroke-dasharray:none;stroke-opacity:1"
         d="m 440.95106,113.16661 q -3.03176,0 -5.06623,-1.07707 -2.03447,-1.07708 -3.07166,-3.311 -1.03718,-2.27383 -1.15685,-5.86407 l 6.10341,-0.91751 q 0.0399,2.07437 0.35903,3.3509 0.35902,1.27653 0.9574,1.83501 0.63826,0.55848 1.51588,0.55848 1.11696,0 1.43609,-0.75794 0.35903,-0.75794 0.35903,-1.59566 0,-1.99458 -0.9574,-3.3509 -0.9574,-1.3962 -2.59295,-2.792408 l -2.79242,-2.433387 q -1.83501,-1.555773 -3.11154,-3.510461 -1.23664,-1.99458 -1.23664,-4.906667 0,-4.108835 2.43339,-6.262982 2.43339,-2.194038 6.622,-2.194038 2.59296,0 4.14873,0.877615 1.59566,0.877616 2.3935,2.313713 0.83772,1.396206 1.11696,2.99187 0.31913,1.555773 0.35903,2.99187 l -6.14331,0.757941 q -0.0399,-1.436098 -0.19946,-2.473279 -0.11967,-1.077074 -0.55848,-1.635556 -0.43881,-0.598374 -1.35632,-0.598374 -0.99729,0 -1.47599,0.837724 -0.4388,0.837723 -0.4388,1.675447 0,1.795122 0.83772,2.951978 0.87762,1.116965 2.27382,2.353605 l 2.67274,2.353604 q 2.11425,1.795122 3.55035,4.068944 1.47599,2.273821 1.47599,5.624711 0,2.27383 -1.03718,4.14873 -1.03718,1.83501 -2.95198,2.91209 -1.8749,1.07707 -4.46786,1.07707 z" />
    </g>
    <g
       style="font-style:normal;font-variant:normal;font-weight:normal;font-stretch:normal;font-size:39.8916px;line-height:1.25;font-family:Communist;-inkscape-font-specification:Communist;text-align:center;text-anchor:middle;fill:#ffffff;fill-opacity:1;stroke:none;stroke-width:3.0861;stroke-miterlimit:4;stroke-dasharray:none;stroke-opacity:1;filter:url(#filter3373)"
       id="text2885"
       aria-label="FLAMES">
      <path
         id="path864"
         style="font-style:normal;font-variant:normal;font-weight:bold;font-stretch:normal;font-size:50.8px;font-family:Oswald;-inkscape-font-specification:'Oswald Bold';fill:#ffffff;fill-opacity:1;stroke:none;stroke-width:3.0861;stroke-miterlimit:4;stroke-dasharray:none;stroke-opacity:1"
         d="m 293.39223,160.31296 v -41.148 h 17.78 v 6.1468 h -8.6868 v 10.3632 h 7.5692 v 6.35 h -7.5692 v 18.288 z" />
      <path
         id="path868"
         style="font-style:normal;font-variant:normal;font-weight:bold;font-stretch:normal;font-size:50.8px;font-family:Oswald;-inkscape-font-specification:'Oswald Bold';fill:#ffffff;fill-opacity:1;stroke:none;stroke-width:3.0861;stroke-miterlimit:4;stroke-dasharray:none;stroke-opacity:1"
         d="m 315.12113,160.31296 v -41.148 h 9.0932 v 35.0012 h 9.4488 v 6.1468 z" />
      <path
         id="path870"
         style="font-style:normal;font-variant:normal;font-weight:bold;font-stretch:normal;font-size:50.8px;font-family:Oswald;-inkscape-font-specification:'Oswald Bold';fill:#ffffff;fill-opacity:1;stroke:none;stroke-width:3.0861;stroke-miterlimit:4;stroke-dasharray:none;stroke-opacity:1"
         d="m 335.66259,160.31296 7.7724,-41.148 h 10.3632 l 7.6708,41.148 h -8.382 l -1.3716,-8.6868 h -6.0452 l -1.4224,8.6868 z m 10.8204,-14.1224 h 4.3688 l -2.1844,-16.0528 z" />
      <path
         id="path872"
         style="font-style:normal;font-variant:normal;font-weight:bold;font-stretch:normal;font-size:50.8px;font-family:Oswald;-inkscape-font-specification:'Oswald Bold';fill:#ffffff;fill-opacity:1;stroke:none;stroke-width:3.0861;stroke-miterlimit:4;stroke-dasharray:none;stroke-opacity:1"
         d="m 365.47107,160.31296 0.7112,-41.148 h 9.7536 l 4.5212,23.9268 4.8768,-23.9268 h 9.398 l 0.7112,41.148 h -6.4516 l -0.762,-27.3812 -4.7752,27.3812 h -5.7404 l -5.08,-27.5844 -0.6096,27.5844 z" />
      <path
         id="path874"
         style="font-style:normal;font-variant:normal;font-weight:bold;font-stretch:normal;font-size:50.8px;font-family:Oswald;-inkscape-font-specification:'Oswald Bold';fill:#ffffff;fill-opacity:1;stroke:none;stroke-width:3.0861;stroke-miterlimit:4;stroke-dasharray:none;stroke-opacity:1"
         d="m 400.74691,160.31296 v -41.148 h 18.4912 v 6.1976 h -9.398 v 10.2108 h 7.1628 v 6.2992 h -7.1628 v 12.2936 h 9.4996 v 6.1468 z" />
      <path
         id="path876"
         style="font-style:normal;font-variant:normal;font-weight:bold;font-stretch:normal;font-size:50.8px;font-family:Oswald;-inkscape-font-specification:'Oswald Bold';fill:#ffffff;fill-opacity:1;stroke:none;stroke-width:3.0861;stroke-miterlimit:4;stroke-dasharray:none;stroke-opacity:1"
         d="m 434.39,160.92256 q -3.8608,0 -6.4516,-1.3716 -2.5908,-1.3716 -3.9116,-4.2164 -1.3208,-2.8956 -1.4732,-7.4676 l 7.7724,-1.1684 q 0.0508,2.6416 0.4572,4.2672 0.4572,1.6256 1.2192,2.3368 0.8128,0.7112 1.9304,0.7112 1.4224,0 1.8288,-0.9652 0.4572,-0.9652 0.4572,-2.032 0,-2.54 -1.2192,-4.2672 -1.2192,-1.778 -3.302,-3.556 l -3.556,-3.0988 q -2.3368,-1.9812 -3.9624,-4.4704 -1.5748,-2.54 -1.5748,-6.2484 0,-5.2324 3.0988,-7.9756 3.0988,-2.794 8.4328,-2.794 3.302,0 5.2832,1.1176 2.032,1.1176 3.048,2.9464 1.0668,1.778 1.4224,3.81 0.4064,1.9812 0.4572,3.81 l -7.8232,0.9652 q -0.0508,-1.8288 -0.254,-3.1496 -0.1524,-1.3716 -0.7112,-2.0828 -0.5588,-0.762 -1.7272,-0.762 -1.27,0 -1.8796,1.0668 -0.5588,1.0668 -0.5588,2.1336 0,2.286 1.0668,3.7592 1.1176,1.4224 2.8956,2.9972 l 3.4036,2.9972 q 2.6924,2.286 4.5212,5.1816 1.8796,2.8956 1.8796,7.1628 0,2.8956 -1.3208,5.2832 -1.3208,2.3368 -3.7592,3.7084 -2.3876,1.3716 -5.6896,1.3716 z" />
    </g>
    <g
       style="font-style:normal;font-variant:normal;font-weight:normal;font-stretch:normal;font-size:20.4611px;line-height:1.25;font-family:Communist;-inkscape-font-specification:Communist;text-align:center;text-anchor:middle;fill:#ffffff;fill-opacity:1;stroke:none;stroke-width:3.0861;stroke-miterlimit:4;stroke-dasharray:none;stroke-opacity:1;filter:url(#filter3373)"
       id="text2889"
       aria-label="BASKETBALL CLUB">
      <path
         id="path898"
         style="font-style:normal;font-variant:normal;font-weight:bold;font-stretch:normal;font-size:20.4611px;font-family:Oswald;-inkscape-font-specification:'Oswald Bold';fill:#ffffff;fill-opacity:1;stroke:none;stroke-width:3.0861;stroke-miterlimit:4;stroke-dasharray:none;stroke-opacity:1"
         d="m 293.02783,183.59636 v -16.57349 h 4.31729 q 1.06398,0 2.00519,0.16369 0.96167,0.16369 1.69827,0.63429 0.7366,0.45015 1.14583,1.30951 0.42968,0.83891 0.42968,2.23026 0,1.0026 -0.30692,1.69827 -0.28645,0.67522 -0.8389,1.08444 -0.53199,0.40922 -1.28905,0.55245 0.96167,0.12277 1.61642,0.6343 0.65476,0.49106 0.98214,1.32997 0.34784,0.8389 0.34784,2.02565 0,1.28904 -0.34784,2.23026 -0.32738,0.92074 -0.96167,1.51412 -0.6343,0.59337 -1.57551,0.87982 -0.92075,0.28646 -2.12795,0.28646 z m 3.66254,-2.55764 h 0.77752 q 1.20721,0 1.65735,-0.61383 0.47061,-0.61383 0.47061,-1.80058 0,-0.94121 -0.20462,-1.49366 -0.20461,-0.55245 -0.67521,-0.79798 -0.47061,-0.266 -1.26859,-0.266 h -0.75706 z m 0,-7.38646 h 0.71614 q 0.8389,0 1.26859,-0.24553 0.42968,-0.26599 0.57291,-0.75706 0.16369,-0.49107 0.16369,-1.18674 0,-0.65476 -0.24554,-1.08444 -0.22507,-0.45015 -0.69568,-0.67522 -0.45014,-0.22507 -1.14582,-0.22507 h -0.63429 z" />
      <path
         id="path900"
         style="font-style:normal;font-variant:normal;font-weight:bold;font-stretch:normal;font-size:20.4611px;font-family:Oswald;-inkscape-font-specification:'Oswald Bold';fill:#ffffff;fill-opacity:1;stroke:none;stroke-width:3.0861;stroke-miterlimit:4;stroke-dasharray:none;stroke-opacity:1"
         d="m 304.21878,183.59636 3.13054,-16.57349 h 4.17407 l 3.08962,16.57349 h -3.37608 l -0.55245,-3.49885 h -2.43487 l -0.57291,3.49885 z m 4.35821,-5.68819 h 1.75965 l -0.87982,-6.4657 z" />
      <path
         id="path902"
         style="font-style:normal;font-variant:normal;font-weight:bold;font-stretch:normal;font-size:20.4611px;font-family:Oswald;-inkscape-font-specification:'Oswald Bold';fill:#ffffff;fill-opacity:1;stroke:none;stroke-width:3.0861;stroke-miterlimit:4;stroke-dasharray:none;stroke-opacity:1"
         d="m 320.52563,183.84189 q -1.55504,0 -2.59856,-0.55245 -1.04351,-0.55245 -1.5755,-1.69827 -0.53199,-1.16628 -0.59337,-3.00778 l 3.13054,-0.47061 q 0.0205,1.06398 0.18415,1.71874 0.18415,0.65475 0.49107,0.94121 0.32738,0.28645 0.77752,0.28645 0.57291,0 0.7366,-0.38876 0.18415,-0.38876 0.18415,-0.81844 0,-1.02306 -0.49106,-1.71873 -0.49107,-0.71614 -1.32998,-1.43228 l -1.43227,-1.24813 q -0.94121,-0.79798 -1.59597,-1.80058 -0.63429,-1.02305 -0.63429,-2.51671 0,-2.10749 1.24812,-3.21239 1.24813,-1.12536 3.39655,-1.12536 1.32997,0 2.12795,0.45014 0.81845,0.45014 1.22767,1.18674 0.42968,0.71614 0.57291,1.53459 0.16369,0.79798 0.18415,1.53458 l -3.15101,0.38876 q -0.0205,-0.7366 -0.10231,-1.26859 -0.0614,-0.55245 -0.28645,-0.8389 -0.22507,-0.30692 -0.69568,-0.30692 -0.51153,0 -0.75706,0.42968 -0.22507,0.42969 -0.22507,0.85937 0,0.92075 0.42968,1.51412 0.45014,0.57291 1.16628,1.20721 l 1.3709,1.2072 q 1.08444,0.92075 1.82103,2.08703 0.75707,1.16629 0.75707,2.88502 0,1.16628 -0.53199,2.12795 -0.53199,0.94121 -1.51412,1.49366 -0.96168,0.55245 -2.29165,0.55245 z" />
      <path
         id="path904"
         style="font-style:normal;font-variant:normal;font-weight:bold;font-stretch:normal;font-size:20.4611px;font-family:Oswald;-inkscape-font-specification:'Oswald Bold';fill:#ffffff;fill-opacity:1;stroke:none;stroke-width:3.0861;stroke-miterlimit:4;stroke-dasharray:none;stroke-opacity:1"
         d="m 326.31708,183.59636 v -16.57349 h 3.66254 v 6.77262 l 2.78271,-6.77262 h 3.58069 l -3.06916,7.48876 3.21239,9.08473 h -3.72392 l -2.39395,-7.32507 -0.38876,0.65475 v 6.67032 z" />
      <path
         id="path906"
         style="font-style:normal;font-variant:normal;font-weight:bold;font-stretch:normal;font-size:20.4611px;font-family:Oswald;-inkscape-font-specification:'Oswald Bold';fill:#ffffff;fill-opacity:1;stroke:none;stroke-width:3.0861;stroke-miterlimit:4;stroke-dasharray:none;stroke-opacity:1"
         d="m 337.54671,183.59636 v -16.57349 h 7.44784 v 2.49625 h -3.78531 v 4.11268 h 2.88502 v 2.53718 h -2.88502 v 4.95159 h 3.82623 v 2.47579 z" />
      <path
         id="path908"
         style="font-style:normal;font-variant:normal;font-weight:bold;font-stretch:normal;font-size:20.4611px;font-family:Oswald;-inkscape-font-specification:'Oswald Bold';fill:#ffffff;fill-opacity:1;stroke:none;stroke-width:3.0861;stroke-miterlimit:4;stroke-dasharray:none;stroke-opacity:1"
         d="m 348.19192,183.59636 v -13.85217 h -2.49626 v -2.72132 h 8.65505 v 2.72132 h -2.47579 v 13.85217 z" />
      <path
         id="path910"
         style="font-style:normal;font-variant:normal;font-weight:bold;font-stretch:normal;font-size:20.4611px;font-family:Oswald;-inkscape-font-specification:'Oswald Bold';fill:#ffffff;fill-opacity:1;stroke:none;stroke-width:3.0861;stroke-miterlimit:4;stroke-dasharray:none;stroke-opacity:1"
         d="m 355.80984,183.59636 v -16.57349 h 4.31729 q 1.06398,0 2.00519,0.16369 0.96167,0.16369 1.69827,0.63429 0.7366,0.45015 1.14582,1.30951 0.42968,0.83891 0.42968,2.23026 0,1.0026 -0.30691,1.69827 -0.28646,0.67522 -0.83891,1.08444 -0.53199,0.40922 -1.28905,0.55245 0.96167,0.12277 1.61643,0.6343 0.65475,0.49106 0.98213,1.32997 0.34784,0.8389 0.34784,2.02565 0,1.28904 -0.34784,2.23026 -0.32738,0.92074 -0.96167,1.51412 -0.63429,0.59337 -1.5755,0.87982 -0.92075,0.28646 -2.12796,0.28646 z m 3.66253,-2.55764 h 0.77753 q 1.2072,0 1.65735,-0.61383 0.4706,-0.61383 0.4706,-1.80058 0,-0.94121 -0.20461,-1.49366 -0.20461,-0.55245 -0.67522,-0.79798 -0.4706,-0.266 -1.26858,-0.266 h -0.75707 z m 0,-7.38646 h 0.71614 q 0.83891,0 1.26859,-0.24553 0.42968,-0.26599 0.57291,-0.75706 0.16369,-0.49107 0.16369,-1.18674 0,-0.65476 -0.24553,-1.08444 -0.22507,-0.45015 -0.69568,-0.67522 -0.45014,-0.22507 -1.14582,-0.22507 h -0.6343 z" />
      <path
         id="path912"
         style="font-style:normal;font-variant:normal;font-weight:bold;font-stretch:normal;font-size:20.4611px;font-family:Oswald;-inkscape-font-specification:'Oswald Bold';fill:#ffffff;fill-opacity:1;stroke:none;stroke-width:3.0861;stroke-miterlimit:4;stroke-dasharray:none;stroke-opacity:1"
         d="m 367.00078,183.59636 3.13055,-16.57349 h 4.17407 l 3.08962,16.57349 h -3.37608 l -0.55245,-3.49885 h -2.43487 l -0.57291,3.49885 z m 4.35822,-5.68819 h 1.75965 l -0.87982,-6.4657 z" />
      <path
         id="path914"
         style="font-style:normal;font-variant:normal;font-weight:bold;font-stretch:normal;font-size:20.4611px;font-family:Oswald;-inkscape-font-specification:'Oswald Bold';fill:#ffffff;fill-opacity:1;stroke:none;stroke-width:3.0861;stroke-miterlimit:4;stroke-dasharray:none;stroke-opacity:1"
         d="m 378.9085,183.59636 v -16.57349 h 3.66254 v 14.0977 h 3.80576 v 2.47579 z" />
      <path
         id="path916"
         style="font-style:normal;font-variant:normal;font-weight:bold;font-stretch:normal;font-size:20.4611px;font-family:Oswald;-inkscape-font-specification:'Oswald Bold';fill:#ffffff;fill-opacity:1;stroke:none;stroke-width:3.0861;stroke-miterlimit:4;stroke-dasharray:none;stroke-opacity:1"
         d="m 387.82027,183.59636 v -16.57349 h 3.66253 v 14.0977 h 3.80577 v 2.47579 z" />
      <path
         id="path918"
         style="font-style:normal;font-variant:normal;font-weight:bold;font-stretch:normal;font-size:20.4611px;font-family:Oswald;-inkscape-font-specification:'Oswald Bold';fill:#ffffff;fill-opacity:1;stroke:none;stroke-width:3.0861;stroke-miterlimit:4;stroke-dasharray:none;stroke-opacity:1"
         d="m 406.71418,183.84189 q -1.88242,0 -2.98732,-0.67521 -1.08444,-0.69568 -1.53459,-1.92335 -0.45014,-1.24812 -0.45014,-2.92593 v -5.97465 q 0,-1.71873 0.45014,-2.94639 0.45015,-1.24813 1.53459,-1.92335 1.1049,-0.67521 2.98732,-0.67521 1.8415,0 2.86455,0.61383 1.04352,0.59337 1.4732,1.67781 0.42968,1.08444 0.42968,2.49625 v 1.43228 h -3.58069 v -1.65735 q 0,-0.49106 -0.0614,-0.94121 -0.0409,-0.45014 -0.28646,-0.7366 -0.24553,-0.30691 -0.8389,-0.30691 -0.57291,0 -0.85937,0.30691 -0.26599,0.30692 -0.34784,0.77752 -0.0614,0.45015 -0.0614,0.96167 v 7.79568 q 0,0.55245 0.0818,1.02306 0.10231,0.45014 0.3683,0.7366 0.28646,0.26599 0.81845,0.26599 0.57291,0 0.81844,-0.28645 0.24553,-0.30692 0.30692,-0.77752 0.0614,-0.47061 0.0614,-0.96168 v -1.73919 h 3.58069 v 1.43228 q 0,1.41181 -0.42968,2.53717 -0.40922,1.1049 -1.45274,1.75966 -1.02305,0.63429 -2.88501,0.63429 z" />
      <path
         id="path920"
         style="font-style:normal;font-variant:normal;font-weight:bold;font-stretch:normal;font-size:20.4611px;font-family:Oswald;-inkscape-font-specification:'Oswald Bold';fill:#ffffff;fill-opacity:1;stroke:none;stroke-width:3.0861;stroke-miterlimit:4;stroke-dasharray:none;stroke-opacity:1"
         d="m 413.47657,183.59636 v -16.57349 h 3.66254 v 14.0977 h 3.80576 v 2.47579 z" />
      <path
         id="path922"
         style="font-style:normal;font-variant:normal;font-weight:bold;font-stretch:normal;font-size:20.4611px;font-family:Oswald;-inkscape-font-specification:'Oswald Bold';fill:#ffffff;fill-opacity:1;stroke:none;stroke-width:3.0861;stroke-miterlimit:4;stroke-dasharray:none;stroke-opacity:1"
         d="m 427.01638,183.84189 q -1.90288,0 -2.98732,-0.61383 -1.06397,-0.63429 -1.49366,-1.82104 -0.42968,-1.2072 -0.42968,-2.9464 v -11.43775 h 3.62161 v 11.9902 q 0,0.51153 0.0819,1.02306 0.0818,0.51153 0.34784,0.8389 0.28645,0.32738 0.85936,0.32738 0.59337,0 0.85937,-0.32738 0.26599,-0.32737 0.32738,-0.8389 0.0818,-0.51153 0.0818,-1.02306 v -11.9902 h 3.64208 v 11.43775 q 0,1.7392 -0.45015,2.9464 -0.42968,1.18675 -1.49366,1.82104 -1.06397,0.61383 -2.96686,0.61383 z" />
      <path
         id="path924"
         style="font-style:normal;font-variant:normal;font-weight:bold;font-stretch:normal;font-size:20.4611px;font-family:Oswald;-inkscape-font-specification:'Oswald Bold';fill:#ffffff;fill-opacity:1;stroke:none;stroke-width:3.0861;stroke-miterlimit:4;stroke-dasharray:none;stroke-opacity:1"
         d="m 434.25737,183.59636 v -16.57349 h 4.31729 q 1.06398,0 2.00519,0.16369 0.96167,0.16369 1.69827,0.63429 0.7366,0.45015 1.14582,1.30951 0.42969,0.83891 0.42969,2.23026 0,1.0026 -0.30692,1.69827 -0.28646,0.67522 -0.83891,1.08444 -0.53198,0.40922 -1.28904,0.55245 0.96167,0.12277 1.61642,0.6343 0.65476,0.49106 0.98213,1.32997 0.34784,0.8389 0.34784,2.02565 0,1.28904 -0.34784,2.23026 -0.32737,0.92074 -0.96167,1.51412 -0.63429,0.59337 -1.5755,0.87982 -0.92075,0.28646 -2.12796,0.28646 z m 3.66254,-2.55764 h 0.77752 q 1.2072,0 1.65735,-0.61383 0.4706,-0.61383 0.4706,-1.80058 0,-0.94121 -0.20461,-1.49366 -0.20461,-0.55245 -0.67521,-0.79798 -0.47061,-0.266 -1.26859,-0.266 h -0.75706 z m 0,-7.38646 h 0.71614 q 0.8389,0 1.26858,-0.24553 0.42969,-0.26599 0.57291,-0.75706 0.16369,-0.49107 0.16369,-1.18674 0,-0.65476 -0.24553,-1.08444 -0.22507,-0.45015 -0.69568,-0.67522 -0.45014,-0.22507 -1.14582,-0.22507 h -0.63429 z" />
    </g>
    <g
       transform="translate(-31.750001)"
       style="font-style:normal;font-variant:normal;font-weight:normal;font-stretch:normal;font-size:39.8916px;line-height:1.25;font-family:Communist;-inkscape-font-specification:Communist;text-align:center;text-anchor:middle;fill:#045f00;fill-opacity:1;stroke:none;stroke-width:3.0861;stroke-miterlimit:4;stroke-dasharray:none;stroke-opacity:1"
       id="text977"
       aria-label="ST. JUDE'S
">
      <path
         id="path927"
         style="font-style:normal;font-variant:normal;font-weight:bold;font-stretch:normal;font-size:39.8916px;font-family:Oswald;-inkscape-font-specification:'Oswald Bold';fill:#045f00;fill-opacity:1;stroke:none;stroke-width:3.0861;stroke-miterlimit:4;stroke-dasharray:none;stroke-opacity:1"
         d="m 329.10682,113.16661 q -3.03176,0 -5.06623,-1.07707 -2.03447,-1.07708 -3.07165,-3.311 -1.03719,-2.27383 -1.15686,-5.86407 l 6.10342,-0.91751 q 0.0399,2.07437 0.35902,3.3509 0.35902,1.27653 0.9574,1.83501 0.63826,0.55848 1.51588,0.55848 1.11696,0 1.4361,-0.75794 0.35902,-0.75794 0.35902,-1.59566 0,-1.99458 -0.9574,-3.3509 -0.9574,-1.3962 -2.59295,-2.792408 l -2.79241,-2.433387 q -1.83502,-1.555773 -3.11155,-3.510461 -1.23664,-1.99458 -1.23664,-4.906667 0,-4.108835 2.43339,-6.262982 2.43339,-2.194038 6.62201,-2.194038 2.59295,0 4.14872,0.877615 1.59567,0.877616 2.3935,2.313713 0.83772,1.396206 1.11696,2.99187 0.31914,1.555773 0.35903,2.99187 l -6.14331,0.757941 q -0.0399,-1.436098 -0.19946,-2.473279 -0.11967,-1.077074 -0.55848,-1.635556 -0.43881,-0.598374 -1.35631,-0.598374 -0.99729,0 -1.47599,0.837724 -0.43881,0.837723 -0.43881,1.675447 0,1.795122 0.83772,2.951978 0.87762,1.116965 2.27382,2.353605 l 2.67274,2.353604 q 2.11426,1.795122 3.55035,4.068944 1.47599,2.273821 1.47599,5.624711 0,2.27383 -1.03718,4.14873 -1.03718,1.83501 -2.95198,2.91209 -1.8749,1.07707 -4.46786,1.07707 z" />
      <path
         id="path929"
         style="font-style:normal;font-variant:normal;font-weight:bold;font-stretch:normal;font-size:39.8916px;font-family:Oswald;-inkscape-font-specification:'Oswald Bold';fill:#045f00;fill-opacity:1;stroke:none;stroke-width:3.0861;stroke-miterlimit:4;stroke-dasharray:none;stroke-opacity:1"
         d="M 343.93341,112.68791 V 85.681298 h -4.86678 v -5.305583 h 16.87415 v 5.305583 h -4.82688 v 27.006612 z" />
      <path
         id="path931"
         style="font-style:normal;font-variant:normal;font-weight:bold;font-stretch:normal;font-size:39.8916px;font-family:Oswald;-inkscape-font-specification:'Oswald Bold';fill:#045f00;fill-opacity:1;stroke:none;stroke-width:3.0861;stroke-miterlimit:4;stroke-dasharray:none;stroke-opacity:1"
         d="m 358.22707,112.68791 v -6.1433 h 6.14331 v 6.1433 z" />
      <path
         id="path933"
         style="font-style:normal;font-variant:normal;font-weight:bold;font-stretch:normal;font-size:39.8916px;font-family:Oswald;-inkscape-font-specification:'Oswald Bold';fill:#045f00;fill-opacity:1;stroke:none;stroke-width:3.0861;stroke-miterlimit:4;stroke-dasharray:none;stroke-opacity:1"
         d="m 376.85645,113.52564 v -4.98645 q 1.07707,0 1.83501,-0.11968 0.75794,-0.11967 1.19675,-0.43881 0.43881,-0.35902 0.63827,-0.99729 0.19945,-0.67815 0.19945,-1.71534 V 80.375715 h 7.1406 v 25.211495 q 0,2.63284 -0.67816,4.42796 -0.63826,1.75524 -2.27382,2.63285 -1.63555,0.87762 -4.58753,0.87762 z" />
      <path
         id="path935"
         style="font-style:normal;font-variant:normal;font-weight:bold;font-stretch:normal;font-size:39.8916px;font-family:Oswald;-inkscape-font-specification:'Oswald Bold';fill:#045f00;fill-opacity:1;stroke:none;stroke-width:3.0861;stroke-miterlimit:4;stroke-dasharray:none;stroke-opacity:1"
         d="m 402.01247,113.16661 q -3.70992,0 -5.82417,-1.19675 -2.07437,-1.23664 -2.91209,-3.55035 -0.83773,-2.3536 -0.83773,-5.74439 V 80.375715 h 7.06082 v 23.376475 q 0,0.99729 0.15956,1.99458 0.15957,0.99729 0.67816,1.63556 0.55848,0.63826 1.67545,0.63826 1.15686,0 1.67545,-0.63826 0.51859,-0.63827 0.63826,-1.63556 0.15957,-0.99729 0.15957,-1.99458 V 80.375715 h 7.1007 v 22.299405 q 0,3.39079 -0.87761,5.74439 -0.83773,2.31371 -2.91209,3.55035 -2.07436,1.19675 -5.78428,1.19675 z" />
      <path
         id="path937"
         style="font-style:normal;font-variant:normal;font-weight:bold;font-stretch:normal;font-size:39.8916px;font-family:Oswald;-inkscape-font-specification:'Oswald Bold';fill:#045f00;fill-opacity:1;stroke:none;stroke-width:3.0861;stroke-miterlimit:4;stroke-dasharray:none;stroke-opacity:1"
         d="M 416.12973,112.68791 V 80.375715 h 8.17778 q 4.22851,0 6.58211,1.077073 2.35361,1.037182 3.31101,3.311003 0.95739,2.23393 0.95739,5.824174 V 102.3161 q 0,3.63013 -0.95739,5.94384 -0.9574,2.27383 -3.31101,3.3509 -2.31371,1.07707 -6.50233,1.07707 z m 7.1406,-4.94656 h 1.11696 q 1.63556,0 2.35361,-0.4787 0.71805,-0.4787 0.87761,-1.43609 0.19946,-0.9574 0.19946,-2.3935 V 89.351325 q 0,-1.436098 -0.23935,-2.313713 -0.19946,-0.877615 -0.91751,-1.276531 -0.71805,-0.398916 -2.31371,-0.398916 h -1.07707 z" />
      <path
         id="path939"
         style="font-style:normal;font-variant:normal;font-weight:bold;font-stretch:normal;font-size:39.8916px;font-family:Oswald;-inkscape-font-specification:'Oswald Bold';fill:#045f00;fill-opacity:1;stroke:none;stroke-width:3.0861;stroke-miterlimit:4;stroke-dasharray:none;stroke-opacity:1"
         d="M 439.50372,112.68791 V 80.375715 h 14.52054 v 4.866775 h -7.37995 v 8.018212 h 5.62472 v 4.946559 h -5.62472 v 9.653769 h 7.45973 v 4.82688 z" />
      <path
         id="path941"
         style="font-style:normal;font-variant:normal;font-weight:bold;font-stretch:normal;font-size:39.8916px;font-family:Oswald;-inkscape-font-specification:'Oswald Bold';fill:#045f00;fill-opacity:1;stroke:none;stroke-width:3.0861;stroke-miterlimit:4;stroke-dasharray:none;stroke-opacity:1"
         d="M 455.94966,92.383087 V 80.375715 h 5.30558 l -2.15415,12.007372 z" />
      <path
         id="path943"
         style="font-style:normal;font-variant:normal;font-weight:bold;font-stretch:normal;font-size:39.8916px;font-family:Oswald;-inkscape-font-specification:'Oswald Bold';fill:#045f00;fill-opacity:1;stroke:none;stroke-width:3.0861;stroke-miterlimit:4;stroke-dasharray:none;stroke-opacity:1"
         d="m 472.701,113.16661 q -3.03176,0 -5.06623,-1.07707 -2.03447,-1.07708 -3.07166,-3.311 -1.03718,-2.27383 -1.15685,-5.86407 l 6.10341,-0.91751 q 0.0399,2.07437 0.35903,3.3509 0.35902,1.27653 0.9574,1.83501 0.63826,0.55848 1.51588,0.55848 1.11696,0 1.43609,-0.75794 0.35903,-0.75794 0.35903,-1.59566 0,-1.99458 -0.9574,-3.3509 -0.9574,-1.3962 -2.59295,-2.792408 l -2.79242,-2.433387 q -1.83501,-1.555773 -3.11154,-3.510461 -1.23664,-1.99458 -1.23664,-4.906667 0,-4.108835 2.43339,-6.262982 2.43338,-2.194038 6.622,-2.194038 2.59296,0 4.14873,0.877615 1.59566,0.877616 2.3935,2.313713 0.83772,1.396206 1.11696,2.99187 0.31913,1.555773 0.35902,2.99187 l -6.1433,0.757941 q -0.0399,-1.436098 -0.19946,-2.473279 -0.11967,-1.077074 -0.55848,-1.635556 -0.43881,-0.598374 -1.35632,-0.598374 -0.99729,0 -1.47599,0.837724 -0.4388,0.837723 -0.4388,1.675447 0,1.795122 0.83772,2.951978 0.87761,1.116965 2.27382,2.353605 l 2.67274,2.353604 q 2.11425,1.795122 3.55035,4.068944 1.47599,2.273821 1.47599,5.624711 0,2.27383 -1.03718,4.14873 -1.03718,1.83501 -2.95198,2.91209 -1.87491,1.07707 -4.46786,1.07707 z" />
    </g>
    <g
       transform="translate(-31.750001)"
       style="font-style:normal;font-variant:normal;font-weight:normal;font-stretch:normal;font-size:39.8916px;line-height:1.25;font-family:Communist;-inkscape-font-specification:Communist;text-align:center;text-anchor:middle;fill:#045f00;fill-opacity:1;stroke:none;stroke-width:3.0861;stroke-miterlimit:4;stroke-dasharray:none;stroke-opacity:1"
       id="text1578"
       aria-label="FLAMES">
      <path
         id="path946"
         style="font-style:normal;font-variant:normal;font-weight:bold;font-stretch:normal;font-size:50.8px;font-family:Oswald;-inkscape-font-specification:'Oswald Bold';fill:#045f00;fill-opacity:1;stroke:none;stroke-width:3.0861;stroke-miterlimit:4;stroke-dasharray:none;stroke-opacity:1"
         d="m 325.14217,160.31296 v -41.148 h 17.78 v 6.1468 h -8.6868 v 10.3632 h 7.5692 v 6.35 h -7.5692 v 18.288 z" />
      <path
         id="path948"
         style="font-style:normal;font-variant:normal;font-weight:bold;font-stretch:normal;font-size:50.8px;font-family:Oswald;-inkscape-font-specification:'Oswald Bold';fill:#045f00;fill-opacity:1;stroke:none;stroke-width:3.0861;stroke-miterlimit:4;stroke-dasharray:none;stroke-opacity:1"
         d="m 346.87107,160.31296 v -41.148 h 9.0932 v 35.0012 h 9.4488 v 6.1468 z" />
      <path
         id="path950"
         style="font-style:normal;font-variant:normal;font-weight:bold;font-stretch:normal;font-size:50.8px;font-family:Oswald;-inkscape-font-specification:'Oswald Bold';fill:#045f00;fill-opacity:1;stroke:none;stroke-width:3.0861;stroke-miterlimit:4;stroke-dasharray:none;stroke-opacity:1"
         d="m 367.41253,160.31296 7.7724,-41.148 h 10.3632 l 7.6708,41.148 h -8.382 l -1.3716,-8.6868 h -6.0452 l -1.4224,8.6868 z m 10.8204,-14.1224 h 4.3688 l -2.1844,-16.0528 z" />
      <path
         id="path952"
         style="font-style:normal;font-variant:normal;font-weight:bold;font-stretch:normal;font-size:50.8px;font-family:Oswald;-inkscape-font-specification:'Oswald Bold';fill:#045f00;fill-opacity:1;stroke:none;stroke-width:3.0861;stroke-miterlimit:4;stroke-dasharray:none;stroke-opacity:1"
         d="m 397.22101,160.31296 0.7112,-41.148 h 9.7536 l 4.5212,23.9268 4.8768,-23.9268 h 9.398 l 0.7112,41.148 h -6.4516 l -0.762,-27.3812 -4.7752,27.3812 h -5.7404 l -5.08,-27.5844 -0.6096,27.5844 z" />
      <path
         id="path954"
         style="font-style:normal;font-variant:normal;font-weight:bold;font-stretch:normal;font-size:50.8px;font-family:Oswald;-inkscape-font-specification:'Oswald Bold';fill:#045f00;fill-opacity:1;stroke:none;stroke-width:3.0861;stroke-miterlimit:4;stroke-dasharray:none;stroke-opacity:1"
         d="m 432.49685,160.31296 v -41.148 h 18.4912 v 6.1976 h -9.398 v 10.2108 h 7.1628 v 6.2992 h -7.1628 v 12.2936 h 9.4996 v 6.1468 z" />
      <path
         id="path956"
         style="font-style:normal;font-variant:normal;font-weight:bold;font-stretch:normal;font-size:50.8px;font-family:Oswald;-inkscape-font-specification:'Oswald Bold';fill:#045f00;fill-opacity:1;stroke:none;stroke-width:3.0861;stroke-miterlimit:4;stroke-dasharray:none;stroke-opacity:1"
         d="m 466.13994,160.92256 q -3.8608,0 -6.4516,-1.3716 -2.5908,-1.3716 -3.9116,-4.2164 -1.3208,-2.8956 -1.4732,-7.4676 l 7.7724,-1.1684 q 0.0508,2.6416 0.4572,4.2672 0.4572,1.6256 1.2192,2.3368 0.8128,0.7112 1.9304,0.7112 1.4224,0 1.8288,-0.9652 0.4572,-0.9652 0.4572,-2.032 0,-2.54 -1.2192,-4.2672 -1.2192,-1.778 -3.302,-3.556 l -3.556,-3.0988 q -2.3368,-1.9812 -3.9624,-4.4704 -1.5748,-2.54 -1.5748,-6.2484 0,-5.2324 3.0988,-7.9756 3.0988,-2.794 8.4328,-2.794 3.302,0 5.2832,1.1176 2.032,1.1176 3.048,2.9464 1.0668,1.778 1.4224,3.81 0.4064,1.9812 0.4572,3.81 l -7.8232,0.9652 q -0.0508,-1.8288 -0.254,-3.1496 -0.1524,-1.3716 -0.7112,-2.0828 -0.5588,-0.762 -1.7272,-0.762 -1.27,0 -1.8796,1.0668 -0.5588,1.0668 -0.5588,2.1336 0,2.286 1.0668,3.7592 1.1176,1.4224 2.8956,2.9972 l 3.4036,2.9972 q 2.6924,2.286 4.5212,5.1816 1.8796,2.8956 1.8796,7.1628 0,2.8956 -1.3208,5.2832 -1.3208,2.3368 -3.7592,3.7084 -2.3876,1.3716 -5.6896,1.3716 z" />
    </g>
    <g
       transform="translate(-31.750001)"
       style="font-style:normal;font-variant:normal;font-weight:normal;font-stretch:normal;font-size:20.4611px;line-height:1.25;font-family:Communist;-inkscape-font-specification:Communist;text-align:center;text-anchor:middle;fill:#045f00;fill-opacity:1;stroke:none;stroke-width:3.0861;stroke-miterlimit:4;stroke-dasharray:none;stroke-opacity:1"
       id="text1586"
       aria-label="BASKETBALL CLUB">
      <path
         id="path959"
         style="font-style:normal;font-variant:normal;font-weight:bold;font-stretch:normal;font-size:20.4611px;font-family:Oswald;-inkscape-font-specification:'Oswald Bold';fill:#045f00;fill-opacity:1;stroke:none;stroke-width:3.0861;stroke-miterlimit:4;stroke-dasharray:none;stroke-opacity:1"
         d="m 324.77777,183.59636 v -16.57349 h 4.31729 q 1.06398,0 2.00519,0.16369 0.96167,0.16369 1.69827,0.63429 0.7366,0.45015 1.14582,1.30951 0.42969,0.83891 0.42969,2.23026 0,1.0026 -0.30692,1.69827 -0.28645,0.67522 -0.8389,1.08444 -0.53199,0.40922 -1.28905,0.55245 0.96167,0.12277 1.61642,0.6343 0.65476,0.49106 0.98214,1.32997 0.34783,0.8389 0.34783,2.02565 0,1.28904 -0.34783,2.23026 -0.32738,0.92074 -0.96168,1.51412 -0.63429,0.59337 -1.5755,0.87982 -0.92075,0.28646 -2.12795,0.28646 z m 3.66254,-2.55764 h 0.77752 q 1.2072,0 1.65735,-0.61383 0.4706,-0.61383 0.4706,-1.80058 0,-0.94121 -0.20461,-1.49366 -0.20461,-0.55245 -0.67521,-0.79798 -0.47061,-0.266 -1.26859,-0.266 h -0.75706 z m 0,-7.38646 h 0.71614 q 0.8389,0 1.26858,-0.24553 0.42969,-0.26599 0.57292,-0.75706 0.16368,-0.49107 0.16368,-1.18674 0,-0.65476 -0.24553,-1.08444 -0.22507,-0.45015 -0.69568,-0.67522 -0.45014,-0.22507 -1.14582,-0.22507 h -0.63429 z" />
      <path
         id="path961"
         style="font-style:normal;font-variant:normal;font-weight:bold;font-stretch:normal;font-size:20.4611px;font-family:Oswald;-inkscape-font-specification:'Oswald Bold';fill:#045f00;fill-opacity:1;stroke:none;stroke-width:3.0861;stroke-miterlimit:4;stroke-dasharray:none;stroke-opacity:1"
         d="m 335.96871,183.59636 3.13055,-16.57349 h 4.17407 l 3.08962,16.57349 h -3.37608 l -0.55245,-3.49885 h -2.43487 l -0.57291,3.49885 z m 4.35822,-5.68819 h 1.75965 l -0.87982,-6.4657 z" />
      <path
         id="path963"
         style="font-style:normal;font-variant:normal;font-weight:bold;font-stretch:normal;font-size:20.4611px;font-family:Oswald;-inkscape-font-specification:'Oswald Bold';fill:#045f00;fill-opacity:1;stroke:none;stroke-width:3.0861;stroke-miterlimit:4;stroke-dasharray:none;stroke-opacity:1"
         d="m 352.27557,183.84189 q -1.55504,0 -2.59856,-0.55245 -1.04351,-0.55245 -1.5755,-1.69827 -0.53199,-1.16628 -0.59338,-3.00778 l 3.13055,-0.47061 q 0.0205,1.06398 0.18415,1.71874 0.18415,0.65475 0.49107,0.94121 0.32738,0.28645 0.77752,0.28645 0.57291,0 0.7366,-0.38876 0.18415,-0.38876 0.18415,-0.81844 0,-1.02306 -0.49107,-1.71873 -0.49106,-0.71614 -1.32997,-1.43228 l -1.43227,-1.24813 q -0.94121,-0.79798 -1.59597,-1.80058 -0.63429,-1.02305 -0.63429,-2.51671 0,-2.10749 1.24812,-3.21239 1.24813,-1.12536 3.39655,-1.12536 1.32997,0 2.12795,0.45014 0.81844,0.45014 1.22767,1.18674 0.42968,0.71614 0.57291,1.53459 0.16369,0.79798 0.18415,1.53458 l -3.15101,0.38876 q -0.0205,-0.7366 -0.10231,-1.26859 -0.0614,-0.55245 -0.28645,-0.8389 -0.22508,-0.30692 -0.69568,-0.30692 -0.51153,0 -0.75706,0.42968 -0.22507,0.42969 -0.22507,0.85937 0,0.92075 0.42968,1.51412 0.45014,0.57291 1.16628,1.20721 l 1.3709,1.2072 q 1.08443,0.92075 1.82103,2.08703 0.75706,1.16629 0.75706,2.88502 0,1.16628 -0.53198,2.12795 -0.53199,0.94121 -1.51413,1.49366 -0.96167,0.55245 -2.29164,0.55245 z" />
      <path
         id="path965"
         style="font-style:normal;font-variant:normal;font-weight:bold;font-stretch:normal;font-size:20.4611px;font-family:Oswald;-inkscape-font-specification:'Oswald Bold';fill:#045f00;fill-opacity:1;stroke:none;stroke-width:3.0861;stroke-miterlimit:4;stroke-dasharray:none;stroke-opacity:1"
         d="m 358.06702,183.59636 v -16.57349 h 3.66254 v 6.77262 l 2.78271,-6.77262 h 3.58069 l -3.06917,7.48876 3.2124,9.08473 h -3.72392 l -2.39395,-7.32507 -0.38876,0.65475 v 6.67032 z" />
      <path
         id="path967"
         style="font-style:normal;font-variant:normal;font-weight:bold;font-stretch:normal;font-size:20.4611px;font-family:Oswald;-inkscape-font-specification:'Oswald Bold';fill:#045f00;fill-opacity:1;stroke:none;stroke-width:3.0861;stroke-miterlimit:4;stroke-dasharray:none;stroke-opacity:1"
         d="m 369.29665,183.59636 v -16.57349 h 7.44784 v 2.49625 h -3.78531 v 4.11268 h 2.88502 v 2.53718 h -2.88502 v 4.95159 h 3.82623 v 2.47579 z" />
      <path
         id="path969"
         style="font-style:normal;font-variant:normal;font-weight:bold;font-stretch:normal;font-size:20.4611px;font-family:Oswald;-inkscape-font-specification:'Oswald Bold';fill:#045f00;fill-opacity:1;stroke:none;stroke-width:3.0861;stroke-miterlimit:4;stroke-dasharray:none;stroke-opacity:1"
         d="m 379.94186,183.59636 v -13.85217 h -2.49626 v -2.72132 h 8.65505 v 2.72132 h -2.47579 v 13.85217 z" />
      <path
         id="path971"
         style="font-style:normal;font-variant:normal;font-weight:bold;font-stretch:normal;font-size:20.4611px;font-family:Oswald;-inkscape-font-specification:'Oswald Bold';fill:#045f00;fill-opacity:1;stroke:none;stroke-width:3.0861;stroke-miterlimit:4;stroke-dasharray:none;stroke-opacity:1"
         d="m 387.55978,183.59636 v -16.57349 h 4.31729 q 1.06398,0 2.00519,0.16369 0.96167,0.16369 1.69827,0.63429 0.7366,0.45015 1.14582,1.30951 0.42968,0.83891 0.42968,2.23026 0,1.0026 -0.30691,1.69827 -0.28646,0.67522 -0.83891,1.08444 -0.53199,0.40922 -1.28905,0.55245 0.96167,0.12277 1.61643,0.6343 0.65475,0.49106 0.98213,1.32997 0.34784,0.8389 0.34784,2.02565 0,1.28904 -0.34784,2.23026 -0.32738,0.92074 -0.96167,1.51412 -0.63429,0.59337 -1.57551,0.87982 -0.92074,0.28646 -2.12795,0.28646 z m 3.66253,-2.55764 h 0.77753 q 1.2072,0 1.65734,-0.61383 0.47061,-0.61383 0.47061,-1.80058 0,-0.94121 -0.20461,-1.49366 -0.20461,-0.55245 -0.67522,-0.79798 -0.4706,-0.266 -1.26859,-0.266 h -0.75706 z m 0,-7.38646 h 0.71614 q 0.83891,0 1.26859,-0.24553 0.42968,-0.26599 0.57291,-0.75706 0.16369,-0.49107 0.16369,-1.18674 0,-0.65476 -0.24553,-1.08444 -0.22508,-0.45015 -0.69568,-0.67522 -0.45014,-0.22507 -1.14582,-0.22507 h -0.6343 z" />
      <path
         id="path973"
         style="font-style:normal;font-variant:normal;font-weight:bold;font-stretch:normal;font-size:20.4611px;font-family:Oswald;-inkscape-font-specification:'Oswald Bold';fill:#045f00;fill-opacity:1;stroke:none;stroke-width:3.0861;stroke-miterlimit:4;stroke-dasharray:none;stroke-opacity:1"
         d="m 398.75072,183.59636 3.13055,-16.57349 h 4.17407 l 3.08962,16.57349 h -3.37608 l -0.55245,-3.49885 h -2.43487 l -0.57291,3.49885 z m 4.35822,-5.68819 h 1.75965 l -0.87982,-6.4657 z" />
      <path
         id="path975"
         style="font-style:normal;font-variant:normal;font-weight:bold;font-stretch:normal;font-size:20.4611px;font-family:Oswald;-inkscape-font-specification:'Oswald Bold';fill:#045f00;fill-opacity:1;stroke:none;stroke-width:3.0861;stroke-miterlimit:4;stroke-dasharray:none;stroke-opacity:1"
         d="m 410.65844,183.59636 v -16.57349 h 3.66254 v 14.0977 h 3.80576 v 2.47579 z" />
      <path
         id="path977"
         style="font-style:normal;font-variant:normal;font-weight:bold;font-stretch:normal;font-size:20.4611px;font-family:Oswald;-inkscape-font-specification:'Oswald Bold';fill:#045f00;fill-opacity:1;stroke:none;stroke-width:3.0861;stroke-miterlimit:4;stroke-dasharray:none;stroke-opacity:1"
         d="m 419.57021,183.59636 v -16.57349 h 3.66253 v 14.0977 h 3.80577 v 2.47579 z" />
      <path
         id="path979"
         style="font-style:normal;font-variant:normal;font-weight:bold;font-stretch:normal;font-size:20.4611px;font-family:Oswald;-inkscape-font-specification:'Oswald Bold';fill:#045f00;fill-opacity:1;stroke:none;stroke-width:3.0861;stroke-miterlimit:4;stroke-dasharray:none;stroke-opacity:1"
         d="m 438.46412,183.84189 q -1.88243,0 -2.98732,-0.67521 -1.08444,-0.69568 -1.53459,-1.92335 -0.45014,-1.24812 -0.45014,-2.92593 v -5.97465 q 0,-1.71873 0.45014,-2.94639 0.45015,-1.24813 1.53459,-1.92335 1.10489,-0.67521 2.98732,-0.67521 1.84149,0 2.86455,0.61383 1.04352,0.59337 1.4732,1.67781 0.42968,1.08444 0.42968,2.49625 v 1.43228 h -3.58069 v -1.65735 q 0,-0.49106 -0.0614,-0.94121 -0.0409,-0.45014 -0.28646,-0.7366 -0.24553,-0.30691 -0.8389,-0.30691 -0.57292,0 -0.85937,0.30691 -0.26599,0.30692 -0.34784,0.77752 -0.0614,0.45015 -0.0614,0.96167 v 7.79568 q 0,0.55245 0.0818,1.02306 0.10231,0.45014 0.3683,0.7366 0.28646,0.26599 0.81845,0.26599 0.57291,0 0.81844,-0.28645 0.24553,-0.30692 0.30692,-0.77752 0.0614,-0.47061 0.0614,-0.96168 v -1.73919 h 3.58069 v 1.43228 q 0,1.41181 -0.42968,2.53717 -0.40922,1.1049 -1.45274,1.75966 -1.02305,0.63429 -2.88501,0.63429 z" />
      <path
         id="path981"
         style="font-style:normal;font-variant:normal;font-weight:bold;font-stretch:normal;font-size:20.4611px;font-family:Oswald;-inkscape-font-specification:'Oswald Bold';fill:#045f00;fill-opacity:1;stroke:none;stroke-width:3.0861;stroke-miterlimit:4;stroke-dasharray:none;stroke-opacity:1"
         d="m 445.22651,183.59636 v -16.57349 h 3.66254 v 14.0977 h 3.80576 v 2.47579 z" />
      <path
         id="path983"
         style="font-style:normal;font-variant:normal;font-weight:bold;font-stretch:normal;font-size:20.4611px;font-family:Oswald;-inkscape-font-specification:'Oswald Bold';fill:#045f00;fill-opacity:1;stroke:none;stroke-width:3.0861;stroke-miterlimit:4;stroke-dasharray:none;stroke-opacity:1"
         d="m 458.76632,183.84189 q -1.90288,0 -2.98732,-0.61383 -1.06398,-0.63429 -1.49366,-1.82104 -0.42968,-1.2072 -0.42968,-2.9464 v -11.43775 h 3.62161 v 11.9902 q 0,0.51153 0.0819,1.02306 0.0818,0.51153 0.34784,0.8389 0.28645,0.32738 0.85936,0.32738 0.59337,0 0.85937,-0.32738 0.26599,-0.32737 0.32738,-0.8389 0.0818,-0.51153 0.0818,-1.02306 v -11.9902 h 3.64208 v 11.43775 q 0,1.7392 -0.45015,2.9464 -0.42968,1.18675 -1.49366,1.82104 -1.06398,0.61383 -2.96686,0.61383 z" />
      <path
         id="path985"
         style="font-style:normal;font-variant:normal;font-weight:bold;font-stretch:normal;font-size:20.4611px;font-family:Oswald;-inkscape-font-specification:'Oswald Bold';fill:#045f00;fill-opacity:1;stroke:none;stroke-width:3.0861;stroke-miterlimit:4;stroke-dasharray:none;stroke-opacity:1"
         d="m 466.00731,183.59636 v -16.57349 h 4.31729 q 1.06398,0 2.00519,0.16369 0.96167,0.16369 1.69827,0.63429 0.7366,0.45015 1.14582,1.30951 0.42969,0.83891 0.42969,2.23026 0,1.0026 -0.30692,1.69827 -0.28646,0.67522 -0.83891,1.08444 -0.53199,0.40922 -1.28905,0.55245 0.96168,0.12277 1.61643,0.6343 0.65476,0.49106 0.98213,1.32997 0.34784,0.8389 0.34784,2.02565 0,1.28904 -0.34784,2.23026 -0.32737,0.92074 -0.96167,1.51412 -0.63429,0.59337 -1.5755,0.87982 -0.92075,0.28646 -2.12796,0.28646 z m 3.66254,-2.55764 h 0.77752 q 1.2072,0 1.65735,-0.61383 0.4706,-0.61383 0.4706,-1.80058 0,-0.94121 -0.20461,-1.49366 -0.20461,-0.55245 -0.67521,-0.79798 -0.47061,-0.266 -1.26859,-0.266 h -0.75706 z m 0,-7.38646 h 0.71613 q 0.83891,0 1.26859,-0.24553 0.42969,-0.26599 0.57291,-0.75706 0.16369,-0.49107 0.16369,-1.18674 0,-0.65476 -0.24553,-1.08444 -0.22507,-0.45015 -0.69568,-0.67522 -0.45014,-0.22507 -1.14582,-0.22507 h -0.63429 z" />
    </g>
  </g>
</svg>
