<?xml version="1.0" encoding="UTF-8" standalone="no"?>
<svg
   xmlns:dc="http://purl.org/dc/elements/1.1/"
   xmlns:cc="http://creativecommons.org/ns#"
   xmlns:rdf="http://www.w3.org/1999/02/22-rdf-syntax-ns#"
   xmlns:svg="http://www.w3.org/2000/svg"
   xmlns="http://www.w3.org/2000/svg"
   xmlns:sodipodi="http://sodipodi.sourceforge.net/DTD/sodipodi-0.dtd"
   xmlns:inkscape="http://www.inkscape.org/namespaces/inkscape"
   width="2300"
   height="1810"
   viewBox="0 0 608.54166 478.89586"
   version="1.1"
   id="svg1611"
   inkscape:version="1.0 (4035a4fb49, 2020-05-01)"
   sodipodi:docname="hero-mobile.svg">
  <defs
     id="defs1605">
    <filter
       inkscape:collect="always"
       style="color-interpolation-filters:sRGB"
       id="filter4620"
       x="-0.03292422"
       width="1.0658484"
       y="-0.020524662"
       height="1.0410492">
      <feGaussianBlur
         inkscape:collect="always"
         stdDeviation="2.2922569"
         id="feGaussianBlur4622" />
    </filter>
  </defs>
  <sodipodi:namedview
     id="base"
     pagecolor="#ffffff"
     bordercolor="#666666"
     borderopacity="1.0"
     inkscape:pageopacity="0.0"
     inkscape:pageshadow="2"
     inkscape:zoom="0.35"
     inkscape:cx="1108.0697"
     inkscape:cy="1131.4286"
     inkscape:document-units="px"
     inkscape:current-layer="layer1"
     inkscape:document-rotation="0"
     showgrid="false"
     units="px"
     inkscape:window-width="1920"
     inkscape:window-height="1027"
     inkscape:window-x="-8"
     inkscape:window-y="0"
     inkscape:window-maximized="1" />
  <metadata
     id="metadata1608">
    <rdf:RDF>
      <cc:Work
         rdf:about="">
        <dc:format>image/svg+xml</dc:format>
        <dc:type
           rdf:resource="http://purl.org/dc/dcmitype/StillImage" />
        <dc:title></dc:title>
      </cc:Work>
    </rdf:RDF>
  </metadata>
  <g
     inkscape:label="Layer 1"
     inkscape:groupmode="layer"
     id="layer1">
    <g
       style="opacity:0.283871"
       id="g868"
       transform="matrix(-16.675624,0,0,14.802502,1827.8328,-1786.6664)">
      <g
         transform="translate(0.16793824,53.084784)"
         id="g864">
        <path
           sodipodi:nodetypes="cccccsccccccccscccsc"
           transform="scale(0.26458333)"
           d="m 288.69531,255.55469 c -10.85565,52.45138 58.17436,32.10874 57.6836,67.39062 0.43316,4.96858 -11.2802,-25.12578 -48.53125,-26.20703 47.88088,6.52674 32.32255,63.98431 62.16015,76.25781 5.24861,3.09385 11.21626,4.72427 17.29297,4.72461 18.95347,3.2e-4 34.31844,-15.52205 34.31836,-34.66992 6e-5,-6.64485 -1.89006,-13.14974 -7.83135,-22.64428 -5.9413,-9.49454 -24.91559,-13.9164 -27.59638,-35.87134 -1.34041,7.16424 -2.12629,14.19112 -1.94141,19.83007 -12.38721,-23.24912 -37.99246,-14.69927 -42.15234,-45.20507 -1.10931,13.21918 1.24823,22.69452 4.16015,30.50586 -8.20157,-13.2631 -35.99544,-13.93649 -47.5625,-34.11133 z m 7.34961,19.83008 c 10.26105,7.76511 21.077,14.00429 33.69531,19.96679 -8.50465,-1.94128 -15.75853,-5.2176 -23.01757,-9.15234 -6.29951,-3.41463 -9.19867,-5.68393 -10.67774,-10.81445 z m 43.125,6.79492 c 3.09681,2.35726 4.8056,5.40638 8.87305,7.48633 -2.63459,-1.1093 -5.71754,-1.4847 -7.90235,-3.32813 -1.08825,-0.91822 -0.64715,-2.77157 -0.9707,-4.1582 z"
           style="fill:#045f00;fill-opacity:1;fill-rule:evenodd;stroke:none;stroke-width:1.26918;stroke-opacity:1"
           id="path858" />
        <path
           sodipodi:nodetypes="cccc"
           id="path860"
           d="m 83.648332,83.721706 c 5.107459,0.882081 3.143721,7.478292 6.970694,11.996933 -3.617773,-2.539332 -5.202181,-3.664037 -6.493753,-6.420376 4.23463,4.510881 3.320552,-2.703488 -0.476941,-5.576557 z"
           style="fill:#045f00;fill-opacity:1;stroke:none;stroke-width:0.264583px;stroke-linecap:butt;stroke-linejoin:miter;stroke-opacity:1" />
        <path
           sodipodi:nodetypes="cccc"
           id="path862"
           d="m 73.485792,78.035088 c 3.705476,1.981145 7.251968,2.164583 9.722284,3.742161 -3.95006,-0.990572 -4.011205,-1.174011 -6.016808,-1.761016 -1.235159,-0.660382 -2.470317,-1.320763 -3.705476,-1.981145 z"
           style="fill:#045f00;fill-opacity:1;stroke:none;stroke-width:0.264583px;stroke-linecap:butt;stroke-linejoin:miter;stroke-opacity:1" />
      </g>
      <path
         sodipodi:nodetypes="cccccccccccccccccccccccccscccc"
         d="m 92.27292,130.67421 c 1.983899,1.09409 2.618347,3.2937 5.395534,5.13147 7.481776,4.19824 8.609166,9.6512 8.394326,12.42768 0.9473,-1.32454 1.45722,-2.91705 1.45727,-4.55115 -2e-4,-2.70108 -1.38863,-5.20832 -3.66696,-6.62182 -1.07797,-0.85704 -2.78682,-1.57286 -3.53053,-2.83239 0.44244,1.48436 -0.342618,0.98496 -0.342618,0.98496 -1.412994,-0.51382 -2.440437,-2.61187 -4.110342,-3.59669 0.452173,0.65235 0.652275,1.02195 0.299723,1.28468 -0.334823,0.15733 -1.233977,-1.65095 -3.896403,-2.22674 z m -0.856279,0.29972 c 0.154686,0.17747 0.292799,0.33071 0.440799,0.49868 -0.140155,-0.185 -0.28656,-0.35284 -0.440799,-0.49868 z m 0.440799,0.49868 c 1.130168,1.49176 1.806593,4.14275 2.199867,6.34381 0.802529,4.27541 1.61367,7.36695 3.993555,9.7467 1.560579,1.77031 5.695378,2.72966 6.061138,2.57349 0.5356,-0.25687 1.10677,-1.0096 1.17719,-1.15342 1.21581,-4.75679 -4.42356,-11.12255 -8.195879,-12.56462 -1.911059,-0.96187 -3.322105,-2.77393 -5.235858,-4.94595 z m -1.254186,1.12862 c 2.878323,3.90636 2.757858,11.00466 -0.300241,5.13819 1.349814,3.18493 0.349393,9.36544 4.845182,12.11089 1.342782,1.03982 2.987429,1.60341 4.679302,1.60352 1.225583,-2.2e-4 2.433373,-0.29628 3.522783,-0.86351 -1.91308,-0.13933 -3.998531,-0.84336 -5.762439,-2.54868 -2.00166,-1.93517 -3.570928,-5.13576 -4.062285,-10.172 -0.304178,-1.28086 -1.286672,-4.59877 -2.922302,-5.26842 z"
         style="fill:#f7db12;fill-opacity:1;fill-rule:evenodd;stroke:none;stroke-width:0.284496;stroke-opacity:1"
         id="path866" />
    </g>
    <g
       transform="translate(161.39585,25.751099)"
       id="g2375"
       style="fill:#ffffff;filter:url(#filter4620)">
      <g
         transform="matrix(4.7172485,0,0,4.7172485,-288.1146,-477.78988)"
         id="g2357"
         style="fill:#ffffff">
        <g
           id="g2353"
           transform="translate(0.16793824,53.084784)"
           style="fill:#ffffff">
          <path
             id="path2347"
             style="fill:#ffffff;fill-opacity:1;fill-rule:evenodd;stroke:none;stroke-width:1.26918;stroke-opacity:1"
             d="m 288.69531,255.55469 c -10.85565,52.45138 58.17436,32.10874 57.6836,67.39062 0.43316,4.96858 -11.2802,-25.12578 -48.53125,-26.20703 47.88088,6.52674 32.32255,63.98431 62.16015,76.25781 5.24861,3.09385 11.21626,4.72427 17.29297,4.72461 18.95347,3.2e-4 34.31844,-15.52205 34.31836,-34.66992 6e-5,-6.64485 -1.89006,-13.14974 -7.83135,-22.64428 -5.9413,-9.49454 -24.91559,-13.9164 -27.59638,-35.87134 -1.34041,7.16424 -2.12629,14.19112 -1.94141,19.83007 -12.38721,-23.24912 -37.99246,-14.69927 -42.15234,-45.20507 -1.10931,13.21918 1.24823,22.69452 4.16015,30.50586 -8.20157,-13.2631 -35.99544,-13.93649 -47.5625,-34.11133 z m 7.34961,19.83008 c 10.26105,7.76511 21.077,14.00429 33.69531,19.96679 -8.50465,-1.94128 -15.75853,-5.2176 -23.01757,-9.15234 -6.29951,-3.41463 -9.19867,-5.68393 -10.67774,-10.81445 z m 43.125,6.79492 c 3.09681,2.35726 4.8056,5.40638 8.87305,7.48633 -2.63459,-1.1093 -5.71754,-1.4847 -7.90235,-3.32813 -1.08825,-0.91822 -0.64715,-2.77157 -0.9707,-4.1582 z"
             transform="scale(0.26458333)"
             sodipodi:nodetypes="cccccsccccccccscccsc" />
          <path
             style="fill:#ffffff;fill-opacity:1;stroke:none;stroke-width:0.264583px;stroke-linecap:butt;stroke-linejoin:miter;stroke-opacity:1"
             d="m 83.648332,83.721706 c 5.107459,0.882081 3.143721,7.478292 6.970694,11.996933 -3.617773,-2.539332 -5.202181,-3.664037 -6.493753,-6.420376 4.23463,4.510881 3.320552,-2.703488 -0.476941,-5.576557 z"
             id="path2349"
             sodipodi:nodetypes="cccc" />
          <path
             style="fill:#ffffff;fill-opacity:1;stroke:none;stroke-width:0.264583px;stroke-linecap:butt;stroke-linejoin:miter;stroke-opacity:1"
             d="m 73.485792,78.035088 c 3.705476,1.981145 7.251968,2.164583 9.722284,3.742161 -3.95006,-0.990572 -4.011205,-1.174011 -6.016808,-1.761016 -1.235159,-0.660382 -2.470317,-1.320763 -3.705476,-1.981145 z"
             id="path2351"
             sodipodi:nodetypes="cccc" />
        </g>
        <path
           id="path2355"
           style="fill:#ffffff;fill-opacity:1;fill-rule:evenodd;stroke:none;stroke-width:0.284496;stroke-opacity:1"
           d="m 92.27292,130.67421 c 1.983899,1.09409 2.618347,3.2937 5.395534,5.13147 7.481776,4.19824 8.609166,9.6512 8.394326,12.42768 0.9473,-1.32454 1.45722,-2.91705 1.45727,-4.55115 -2e-4,-2.70108 -1.38863,-5.20832 -3.66696,-6.62182 -1.07797,-0.85704 -2.78682,-1.57286 -3.53053,-2.83239 0.44244,1.48436 -0.342618,0.98496 -0.342618,0.98496 -1.412994,-0.51382 -2.440437,-2.61187 -4.110342,-3.59669 0.452173,0.65235 0.652275,1.02195 0.299723,1.28468 -0.334823,0.15733 -1.233977,-1.65095 -3.896403,-2.22674 z m -0.856279,0.29972 c 0.154686,0.17747 0.292799,0.33071 0.440799,0.49868 -0.140155,-0.185 -0.28656,-0.35284 -0.440799,-0.49868 z m 0.440799,0.49868 c 1.130168,1.49176 1.806593,4.14275 2.199867,6.34381 0.802529,4.27541 1.61367,7.36695 3.993555,9.7467 1.560579,1.77031 5.695378,2.72966 6.061138,2.57349 0.5356,-0.25687 1.10677,-1.0096 1.17719,-1.15342 1.21581,-4.75679 -4.42356,-11.12255 -8.195879,-12.56462 -1.911059,-0.96187 -3.322105,-2.77393 -5.235858,-4.94595 z m -1.254186,1.12862 c 2.878323,3.90636 2.757858,11.00466 -0.300241,5.13819 1.349814,3.18493 0.349393,9.36544 4.845182,12.11089 1.342782,1.03982 2.987429,1.60341 4.679302,1.60352 1.225583,-2.2e-4 2.433373,-0.29628 3.522783,-0.86351 -1.91308,-0.13933 -3.998531,-0.84336 -5.762439,-2.54868 -2.00166,-1.93517 -3.570928,-5.13576 -4.062285,-10.172 -0.304178,-1.28086 -1.286672,-4.59877 -2.922302,-5.26842 z"
           sodipodi:nodetypes="cccccccccccccccccccccccccscccc" />
      </g>
      <g
         id="g2373"
         transform="translate(-39.895839)"
         style="fill:#ffffff">
        <text
           id="text2363"
           y="288.46875"
           x="182.4651"
           style="font-style:normal;font-variant:normal;font-weight:normal;font-stretch:normal;font-size:39.8916px;line-height:1.25;font-family:Communist;-inkscape-font-specification:Communist;text-align:center;text-anchor:middle;fill:#ffffff;fill-opacity:1;stroke:none;stroke-width:3.0861;stroke-miterlimit:4;stroke-dasharray:none;stroke-opacity:1"
           xml:space="preserve"><tspan
             style="font-style:normal;font-variant:normal;font-weight:bold;font-stretch:normal;font-size:39.8916px;font-family:Oswald;-inkscape-font-specification:'Oswald Bold';fill:#ffffff;fill-opacity:1;stroke:none;stroke-width:3.0861;stroke-miterlimit:4;stroke-dasharray:none;stroke-opacity:1"
             y="288.46875"
             x="182.4651"
             id="tspan2359"
             sodipodi:role="line">ST. JUDES</tspan><tspan
             id="tspan2361"
             style="font-style:normal;font-variant:normal;font-weight:bold;font-stretch:normal;font-size:50.8px;font-family:Oswald;-inkscape-font-specification:'Oswald Bold';fill:#ffffff;fill-opacity:1;stroke:none;stroke-width:3.0861;stroke-miterlimit:4;stroke-dasharray:none;stroke-opacity:1"
             y="338.33325"
             x="182.4651"
             sodipodi:role="line" /></text>
        <text
           xml:space="preserve"
           style="font-style:normal;font-variant:normal;font-weight:normal;font-stretch:normal;font-size:39.8916px;line-height:1.25;font-family:Communist;-inkscape-font-specification:Communist;text-align:center;text-anchor:middle;fill:#ffffff;fill-opacity:1;stroke:none;stroke-width:3.0861;stroke-miterlimit:4;stroke-dasharray:none;stroke-opacity:1"
           x="182.4651"
           y="336.09381"
           id="text2367"><tspan
             sodipodi:role="line"
             x="182.4651"
             y="336.09381"
             style="font-style:normal;font-variant:normal;font-weight:bold;font-stretch:normal;font-size:50.8px;font-family:Oswald;-inkscape-font-specification:'Oswald Bold';fill:#ffffff;fill-opacity:1;stroke:none;stroke-width:3.0861;stroke-miterlimit:4;stroke-dasharray:none;stroke-opacity:1"
             id="tspan2365">FLAMES</tspan></text>
        <text
           xml:space="preserve"
           style="font-style:normal;font-variant:normal;font-weight:normal;font-stretch:normal;font-size:20.4611px;line-height:1.25;font-family:Communist;-inkscape-font-specification:Communist;text-align:center;text-anchor:middle;fill:#ffffff;fill-opacity:1;stroke:none;stroke-width:3.0861;stroke-miterlimit:4;stroke-dasharray:none;stroke-opacity:1"
           x="182.4651"
           y="359.3772"
           id="text2371"><tspan
             sodipodi:role="line"
             x="182.4651"
             y="359.3772"
             style="font-style:normal;font-variant:normal;font-weight:bold;font-stretch:normal;font-size:20.4611px;font-family:Oswald;-inkscape-font-specification:'Oswald Bold';fill:#ffffff;fill-opacity:1;stroke:none;stroke-width:3.0861;stroke-miterlimit:4;stroke-dasharray:none;stroke-opacity:1"
             id="tspan2369">BASKETBALL CLUB</tspan></text>
      </g>
    </g>
    <g
       id="g2264"
       transform="translate(161.39584,25.751099)">
      <g
         id="g931"
         transform="matrix(4.7172485,0,0,4.7172485,-288.1146,-477.78988)">
        <g
           transform="translate(0.16793824,53.084784)"
           id="g874">
          <path
             sodipodi:nodetypes="cccccsccccccccscccsc"
             transform="scale(0.26458333)"
             d="m 288.69531,255.55469 c -10.85565,52.45138 58.17436,32.10874 57.6836,67.39062 0.43316,4.96858 -11.2802,-25.12578 -48.53125,-26.20703 47.88088,6.52674 32.32255,63.98431 62.16015,76.25781 5.24861,3.09385 11.21626,4.72427 17.29297,4.72461 18.95347,3.2e-4 34.31844,-15.52205 34.31836,-34.66992 6e-5,-6.64485 -1.89006,-13.14974 -7.83135,-22.64428 -5.9413,-9.49454 -24.91559,-13.9164 -27.59638,-35.87134 -1.34041,7.16424 -2.12629,14.19112 -1.94141,19.83007 -12.38721,-23.24912 -37.99246,-14.69927 -42.15234,-45.20507 -1.10931,13.21918 1.24823,22.69452 4.16015,30.50586 -8.20157,-13.2631 -35.99544,-13.93649 -47.5625,-34.11133 z m 7.34961,19.83008 c 10.26105,7.76511 21.077,14.00429 33.69531,19.96679 -8.50465,-1.94128 -15.75853,-5.2176 -23.01757,-9.15234 -6.29951,-3.41463 -9.19867,-5.68393 -10.67774,-10.81445 z m 43.125,6.79492 c 3.09681,2.35726 4.8056,5.40638 8.87305,7.48633 -2.63459,-1.1093 -5.71754,-1.4847 -7.90235,-3.32813 -1.08825,-0.91822 -0.64715,-2.77157 -0.9707,-4.1582 z"
             style="fill:#045f00;fill-opacity:1;fill-rule:evenodd;stroke:none;stroke-width:1.26918;stroke-opacity:1"
             id="path24-0" />
          <path
             sodipodi:nodetypes="cccc"
             id="path867"
             d="m 83.648332,83.721706 c 5.107459,0.882081 3.143721,7.478292 6.970694,11.996933 -3.617773,-2.539332 -5.202181,-3.664037 -6.493753,-6.420376 4.23463,4.510881 3.320552,-2.703488 -0.476941,-5.576557 z"
             style="fill:#045f00;fill-opacity:1;stroke:none;stroke-width:0.264583px;stroke-linecap:butt;stroke-linejoin:miter;stroke-opacity:1" />
          <path
             sodipodi:nodetypes="cccc"
             id="path869"
             d="m 73.485792,78.035088 c 3.705476,1.981145 7.251968,2.164583 9.722284,3.742161 -3.95006,-0.990572 -4.011205,-1.174011 -6.016808,-1.761016 -1.235159,-0.660382 -2.470317,-1.320763 -3.705476,-1.981145 z"
             style="fill:#045f00;fill-opacity:1;stroke:none;stroke-width:0.264583px;stroke-linecap:butt;stroke-linejoin:miter;stroke-opacity:1" />
        </g>
        <path
           sodipodi:nodetypes="cccccccccccccccccccccccccscccc"
           d="m 92.27292,130.67421 c 1.983899,1.09409 2.618347,3.2937 5.395534,5.13147 7.481776,4.19824 8.609166,9.6512 8.394326,12.42768 0.9473,-1.32454 1.45722,-2.91705 1.45727,-4.55115 -2e-4,-2.70108 -1.38863,-5.20832 -3.66696,-6.62182 -1.07797,-0.85704 -2.78682,-1.57286 -3.53053,-2.83239 0.44244,1.48436 -0.342618,0.98496 -0.342618,0.98496 -1.412994,-0.51382 -2.440437,-2.61187 -4.110342,-3.59669 0.452173,0.65235 0.652275,1.02195 0.299723,1.28468 -0.334823,0.15733 -1.233977,-1.65095 -3.896403,-2.22674 z m -0.856279,0.29972 c 0.154686,0.17747 0.292799,0.33071 0.440799,0.49868 -0.140155,-0.185 -0.28656,-0.35284 -0.440799,-0.49868 z m 0.440799,0.49868 c 1.130168,1.49176 1.806593,4.14275 2.199867,6.34381 0.802529,4.27541 1.61367,7.36695 3.993555,9.7467 1.560579,1.77031 5.695378,2.72966 6.061138,2.57349 0.5356,-0.25687 1.10677,-1.0096 1.17719,-1.15342 1.21581,-4.75679 -4.42356,-11.12255 -8.195879,-12.56462 -1.911059,-0.96187 -3.322105,-2.77393 -5.235858,-4.94595 z m -1.254186,1.12862 c 2.878323,3.90636 2.757858,11.00466 -0.300241,5.13819 1.349814,3.18493 0.349393,9.36544 4.845182,12.11089 1.342782,1.03982 2.987429,1.60341 4.679302,1.60352 1.225583,-2.2e-4 2.433373,-0.29628 3.522783,-0.86351 -1.91308,-0.13933 -3.998531,-0.84336 -5.762439,-2.54868 -2.00166,-1.93517 -3.570928,-5.13576 -4.062285,-10.172 -0.304178,-1.28086 -1.286672,-4.59877 -2.922302,-5.26842 z"
           style="fill:#f7db12;fill-opacity:1;fill-rule:evenodd;stroke:none;stroke-width:0.284496;stroke-opacity:1"
           id="path24" />
      </g>
      <g
         transform="translate(-39.895839)"
         id="g2248">
        <text
           xml:space="preserve"
           style="font-style:normal;font-variant:normal;font-weight:normal;font-stretch:normal;font-size:39.8916px;line-height:1.25;font-family:Communist;-inkscape-font-specification:Communist;text-align:center;text-anchor:middle;fill:#045f00;fill-opacity:1;stroke:none;stroke-width:3.0861;stroke-miterlimit:4;stroke-dasharray:none;stroke-opacity:1"
           x="182.4651"
           y="288.46875"
           id="text977"><tspan
             sodipodi:role="line"
             id="tspan973"
             x="182.4651"
             y="288.46875"
             style="font-style:normal;font-variant:normal;font-weight:bold;font-stretch:normal;font-size:39.8916px;font-family:Oswald;-inkscape-font-specification:'Oswald Bold';fill:#045f00;fill-opacity:1;stroke:none;stroke-width:3.0861;stroke-miterlimit:4;stroke-dasharray:none;stroke-opacity:1">ST. JUDES</tspan><tspan
             sodipodi:role="line"
             x="182.4651"
             y="338.33325"
             style="font-style:normal;font-variant:normal;font-weight:bold;font-stretch:normal;font-size:50.8px;font-family:Oswald;-inkscape-font-specification:'Oswald Bold';fill:#045f00;fill-opacity:1;stroke:none;stroke-width:3.0861;stroke-miterlimit:4;stroke-dasharray:none;stroke-opacity:1"
             id="tspan975" /></text>
        <text
           id="text1578"
           y="336.09381"
           x="182.4651"
           style="font-style:normal;font-variant:normal;font-weight:normal;font-stretch:normal;font-size:39.8916px;line-height:1.25;font-family:Communist;-inkscape-font-specification:Communist;text-align:center;text-anchor:middle;fill:#045f00;fill-opacity:1;stroke:none;stroke-width:3.0861;stroke-miterlimit:4;stroke-dasharray:none;stroke-opacity:1"
           xml:space="preserve"><tspan
             id="tspan1576"
             style="font-style:normal;font-variant:normal;font-weight:bold;font-stretch:normal;font-size:50.8px;font-family:Oswald;-inkscape-font-specification:'Oswald Bold';fill:#045f00;fill-opacity:1;stroke:none;stroke-width:3.0861;stroke-miterlimit:4;stroke-dasharray:none;stroke-opacity:1"
             y="336.09381"
             x="182.4651"
             sodipodi:role="line">FLAMES</tspan></text>
        <text
           id="text1586"
           y="359.3772"
           x="182.4651"
           style="font-style:normal;font-variant:normal;font-weight:normal;font-stretch:normal;font-size:20.4611px;line-height:1.25;font-family:Communist;-inkscape-font-specification:Communist;text-align:center;text-anchor:middle;fill:#045f00;fill-opacity:1;stroke:none;stroke-width:3.0861;stroke-miterlimit:4;stroke-dasharray:none;stroke-opacity:1"
           xml:space="preserve"><tspan
             id="tspan1584"
             style="font-style:normal;font-variant:normal;font-weight:bold;font-stretch:normal;font-size:20.4611px;font-family:Oswald;-inkscape-font-specification:'Oswald Bold';fill:#045f00;fill-opacity:1;stroke:none;stroke-width:3.0861;stroke-miterlimit:4;stroke-dasharray:none;stroke-opacity:1"
             y="359.3772"
             x="182.4651"
             sodipodi:role="line">BASKETBALL CLUB</tspan></text>
      </g>
    </g>
  </g>
</svg>
