<?xml version="1.0" encoding="UTF-8" standalone="no"?>
<svg
   xmlns:dc="http://purl.org/dc/elements/1.1/"
   xmlns:cc="http://creativecommons.org/ns#"
   xmlns:rdf="http://www.w3.org/1999/02/22-rdf-syntax-ns#"
   xmlns:svg="http://www.w3.org/2000/svg"
   xmlns="http://www.w3.org/2000/svg"
   xmlns:sodipodi="http://sodipodi.sourceforge.net/DTD/sodipodi-0.dtd"
   xmlns:inkscape="http://www.inkscape.org/namespaces/inkscape"
   sodipodi:docname="logo.svg"
   inkscape:version="1.0 (4035a4fb49, 2020-05-01)"
   id="svg5294"
   version="1.1"
   viewBox="0 0 52.916666 16.933334"
   height="64"
   width="200">
  <defs
     id="defs5288" />
  <sodipodi:namedview
     inkscape:window-maximized="1"
     inkscape:window-y="-8"
     inkscape:window-x="1912"
     inkscape:window-height="1027"
     inkscape:window-width="1920"
     units="px"
     showgrid="false"
     inkscape:document-rotation="0"
     inkscape:current-layer="layer1"
     inkscape:document-units="px"
     inkscape:cy="84.595625"
     inkscape:cx="190.52312"
     inkscape:zoom="2.4660349"
     inkscape:pageshadow="2"
     inkscape:pageopacity="0.0"
     borderopacity="1.0"
     bordercolor="#666666"
     pagecolor="#ffffff"
     id="base" />
  <metadata
     id="metadata5291">
    <rdf:RDF>
      <cc:Work
         rdf:about="">
        <dc:format>image/svg+xml</dc:format>
        <dc:type
           rdf:resource="http://purl.org/dc/dcmitype/StillImage" />
        <dc:title />
      </cc:Work>
    </rdf:RDF>
  </metadata>
  <g
     id="layer1"
     inkscape:groupmode="layer"
     inkscape:label="Layer 1">
    <g
       id="g931"
       transform="matrix(0.52387732,0,0,0.52387732,-38.585523,-63.232149)">
      <g
         transform="translate(0.16793824,53.084784)"
         id="g874">
        <path
           sodipodi:nodetypes="cccccsccccccccscccsc"
           transform="scale(0.26458333)"
           d="m 288.69531,255.55469 c -10.85565,52.45138 58.17436,32.10874 57.6836,67.39062 0.43316,4.96858 -11.2802,-25.12578 -48.53125,-26.20703 47.88088,6.52674 32.32255,63.98431 62.16015,76.25781 5.24861,3.09385 11.21626,4.72427 17.29297,4.72461 18.95347,3.2e-4 34.31844,-15.52205 34.31836,-34.66992 6e-5,-6.64485 -1.89006,-13.14974 -7.83135,-22.64428 -5.9413,-9.49454 -24.91559,-13.9164 -27.59638,-35.87134 -1.34041,7.16424 -2.12629,14.19112 -1.94141,19.83007 -12.38721,-23.24912 -37.99246,-14.69927 -42.15234,-45.20507 -1.10931,13.21918 1.24823,22.69452 4.16015,30.50586 -8.20157,-13.2631 -35.99544,-13.93649 -47.5625,-34.11133 z m 7.34961,19.83008 c 10.26105,7.76511 21.077,14.00429 33.69531,19.96679 -8.50465,-1.94128 -15.75853,-5.2176 -23.01757,-9.15234 -6.29951,-3.41463 -9.19867,-5.68393 -10.67774,-10.81445 z m 43.125,6.79492 c 3.09681,2.35726 4.8056,5.40638 8.87305,7.48633 -2.63459,-1.1093 -5.71754,-1.4847 -7.90235,-3.32813 -1.08825,-0.91822 -0.64715,-2.77157 -0.9707,-4.1582 z"
           style="fill:#045f00;fill-opacity:1;fill-rule:evenodd;stroke:none;stroke-width:1.26918;stroke-opacity:1"
           id="path24-0" />
        <path
           sodipodi:nodetypes="cccc"
           id="path867"
           d="m 83.648332,83.721706 c 5.107459,0.882081 3.143721,7.478292 6.970694,11.996933 -3.617773,-2.539332 -5.202181,-3.664037 -6.493753,-6.420376 4.23463,4.510881 3.320552,-2.703488 -0.476941,-5.576557 z"
           style="fill:#045f00;fill-opacity:1;stroke:none;stroke-width:0.264583px;stroke-linecap:butt;stroke-linejoin:miter;stroke-opacity:1" />
        <path
           sodipodi:nodetypes="cccc"
           id="path869"
           d="m 73.485792,78.035088 c 3.705476,1.981145 7.251968,2.164583 9.722284,3.742161 -3.95006,-0.990572 -4.011205,-1.174011 -6.016808,-1.761016 -1.235159,-0.660382 -2.470317,-1.320763 -3.705476,-1.981145 z"
           style="fill:#045f00;fill-opacity:1;stroke:none;stroke-width:0.264583px;stroke-linecap:butt;stroke-linejoin:miter;stroke-opacity:1" />
      </g>
      <path
         sodipodi:nodetypes="cccccccccccccccccccccccccscccc"
         d="m 92.27292,130.67421 c 1.983899,1.09409 2.618347,3.2937 5.395534,5.13147 7.481776,4.19824 8.609166,9.6512 8.394326,12.42768 0.9473,-1.32454 1.45722,-2.91705 1.45727,-4.55115 -2e-4,-2.70108 -1.38863,-5.20832 -3.66696,-6.62182 -1.07797,-0.85704 -2.78682,-1.57286 -3.53053,-2.83239 0.44244,1.48436 -0.342618,0.98496 -0.342618,0.98496 -1.412994,-0.51382 -2.440437,-2.61187 -4.110342,-3.59669 0.452173,0.65235 0.652275,1.02195 0.299723,1.28468 -0.334823,0.15733 -1.233977,-1.65095 -3.896403,-2.22674 z m -0.856279,0.29972 c 0.154686,0.17747 0.292799,0.33071 0.440799,0.49868 -0.140155,-0.185 -0.28656,-0.35284 -0.440799,-0.49868 z m 0.440799,0.49868 c 1.130168,1.49176 1.806593,4.14275 2.199867,6.34381 0.802529,4.27541 1.61367,7.36695 3.993555,9.7467 1.560579,1.77031 5.695378,2.72966 6.061138,2.57349 0.5356,-0.25687 1.10677,-1.0096 1.17719,-1.15342 1.21581,-4.75679 -4.42356,-11.12255 -8.195879,-12.56462 -1.911059,-0.96187 -3.322105,-2.77393 -5.235858,-4.94595 z m -1.254186,1.12862 c 2.878323,3.90636 2.757858,11.00466 -0.300241,5.13819 1.349814,3.18493 0.349393,9.36544 4.845182,12.11089 1.342782,1.03982 2.987429,1.60341 4.679302,1.60352 1.225583,-2.2e-4 2.433373,-0.29628 3.522783,-0.86351 -1.91308,-0.13933 -3.998531,-0.84336 -5.762439,-2.54868 -2.00166,-1.93517 -3.570928,-5.13576 -4.062285,-10.172 -0.304178,-1.28086 -1.286672,-4.59877 -2.922302,-5.26842 z"
         style="fill:#f7db12;fill-opacity:1;fill-rule:evenodd;stroke:none;stroke-width:0.284496;stroke-opacity:1"
         id="path24" />
    </g>
    <g
       style="font-style:normal;font-variant:normal;font-weight:normal;font-stretch:normal;font-size:7.98151px;line-height:1.25;font-family:Communist;-inkscape-font-specification:Communist;text-align:center;text-anchor:middle;fill:#045f00;fill-opacity:1;stroke:none;stroke-width:0.617466;stroke-miterlimit:4;stroke-dasharray:none;stroke-opacity:1"
       id="text1578"
       aria-label="FLAMES">
      <path
         id="path838"
         style="font-style:normal;font-variant:normal;font-weight:bold;font-stretch:normal;font-size:10.1641px;font-family:Oswald;-inkscape-font-specification:'Oswald Bold';fill:#045f00;fill-opacity:1;stroke:none;stroke-width:0.617466;stroke-miterlimit:4;stroke-dasharray:none;stroke-opacity:1"
         d="M 21.166616,13.107211 V 4.8742904 h 3.557435 v 1.229856 H 22.98599 v 2.0734764 h 1.514451 V 9.4481352 H 22.98599 v 3.6590758 z" />
      <path
         id="path840"
         style="font-style:normal;font-variant:normal;font-weight:bold;font-stretch:normal;font-size:10.1641px;font-family:Oswald;-inkscape-font-specification:'Oswald Bold';fill:#045f00;fill-opacity:1;stroke:none;stroke-width:0.617466;stroke-miterlimit:4;stroke-dasharray:none;stroke-opacity:1"
         d="M 25.514151,13.107211 V 4.8742904 h 1.819374 v 7.0030646 h 1.890522 v 1.229856 z" />
      <path
         id="path842"
         style="font-style:normal;font-variant:normal;font-weight:bold;font-stretch:normal;font-size:10.1641px;font-family:Oswald;-inkscape-font-specification:'Oswald Bold';fill:#045f00;fill-opacity:1;stroke:none;stroke-width:0.617466;stroke-miterlimit:4;stroke-dasharray:none;stroke-opacity:1"
         d="m 29.6241,13.107211 1.555107,-8.2329206 h 2.073477 l 1.534779,8.2329206 h -1.677077 l -0.27443,-1.738061 h -1.209528 l -0.284595,1.738061 z m 2.164953,-2.82562 h 0.874113 L 32.22611,7.0697359 Z" />
      <path
         id="path844"
         style="font-style:normal;font-variant:normal;font-weight:bold;font-stretch:normal;font-size:10.1641px;font-family:Oswald;-inkscape-font-specification:'Oswald Bold';fill:#045f00;fill-opacity:1;stroke:none;stroke-width:0.617466;stroke-miterlimit:4;stroke-dasharray:none;stroke-opacity:1"
         d="m 35.588204,13.107211 0.142297,-8.2329206 h 1.951507 l 0.904605,4.7872909 0.975754,-4.7872909 h 1.880358 l 0.142298,8.2329206 H 40.294182 L 40.14172,7.6287614 39.186295,13.107211 h -1.148543 l -1.01641,-5.519106 -0.121969,5.519106 z" />
      <path
         id="path846"
         style="font-style:normal;font-variant:normal;font-weight:bold;font-stretch:normal;font-size:10.1641px;font-family:Oswald;-inkscape-font-specification:'Oswald Bold';fill:#045f00;fill-opacity:1;stroke:none;stroke-width:0.617466;stroke-miterlimit:4;stroke-dasharray:none;stroke-opacity:1"
         d="M 42.646217,13.107211 V 4.8742904 h 3.699733 v 1.2400201 h -1.880359 v 2.0429841 h 1.433138 v 1.2603483 h -1.433138 v 2.4597121 h 1.900687 v 1.229856 z" />
      <path
         id="path848"
         style="font-style:normal;font-variant:normal;font-weight:bold;font-stretch:normal;font-size:10.1641px;font-family:Oswald;-inkscape-font-specification:'Oswald Bold';fill:#045f00;fill-opacity:1;stroke:none;stroke-width:0.617466;stroke-miterlimit:4;stroke-dasharray:none;stroke-opacity:1"
         d="m 49.377552,13.22918 q -0.772472,0 -1.290841,-0.27443 -0.518369,-0.274431 -0.782636,-0.843621 -0.264266,-0.579353 -0.294759,-1.494122 l 1.555108,-0.233775 q 0.01016,0.528534 0.09148,0.853785 0.09148,0.325251 0.243938,0.467548 0.162626,0.142298 0.386236,0.142298 0.284595,0 0.365907,-0.193118 0.09148,-0.193118 0.09148,-0.406564 0,-0.508205 -0.243938,-0.853785 -0.243939,-0.355743 -0.660667,-0.7114865 L 48.127367,9.0618994 Q 47.659819,8.6654995 47.334568,8.1674587 47.019481,7.6592537 47.019481,6.9172744 q 0,-1.0469023 0.62001,-1.5957637 0.62001,-0.5590254 1.68724,-0.5590254 0.660667,0 1.057066,0.2236102 0.406564,0.2236102 0.609846,0.5895177 0.213447,0.3557435 0.284595,0.7623075 0.08131,0.3963999 0.09148,0.7623075 L 49.804444,7.2933461 Q 49.79428,6.9274385 49.753623,6.6631719 49.723131,6.3887412 49.611326,6.2464438 49.499521,6.0939823 49.265747,6.0939823 q -0.254103,0 -0.376072,0.2134461 -0.111805,0.2134461 -0.111805,0.4268922 0,0.4573845 0.213446,0.7521434 0.22361,0.2845948 0.579354,0.5996819 l 0.680994,0.5996818 q 0.538697,0.4573845 0.904605,1.0367382 0.376072,0.5793541 0.376072,1.4331381 0,0.579354 -0.264267,1.057066 -0.264266,0.467549 -0.752143,0.74198 -0.477713,0.27443 -1.138379,0.27443 z" />
    </g>
  </g>
</svg>
